<mxfile modified="2020-10-15T12:48:57.328Z" host="app.diagrams.net" agent="5.0 (Macintosh; Intel Mac OS X 10_15_7) AppleWebKit/605.1.15 (KHTML, like Gecko) Version/14.0 Safari/605.1.15" etag="ijBLYZrHssvJxlI9zPP7" version="13.8.0" type="github" pages="4">
  <diagram id="Ht1M8jgEwFfnCIfOTk4-" name="Architecture">
    <mxGraphModel dx="1186" dy="662" grid="1" gridSize="10" guides="1" tooltips="1" connect="1" arrows="1" fold="1" page="1" pageScale="1" pageWidth="1169" pageHeight="827" background="none" math="0" shadow="0">
      <root>
        <mxCell id="0" />
        <mxCell id="1" parent="0" />
        <mxCell id="bwt8jgNNYOY3-T8eXTDR-4" value="POS Architecture" style="text;html=1;resizable=0;points=[];autosize=1;align=left;verticalAlign=top;spacingTop=-4;fontSize=30;fontStyle=1" parent="1" vertex="1">
          <mxGeometry x="12" y="65.5" width="260" height="40" as="geometry" />
        </mxCell>
        <mxCell id="bwt8jgNNYOY3-T8eXTDR-5" value="Simple POS Architecture" style="text;html=1;resizable=0;points=[];autosize=1;align=left;verticalAlign=top;spacingTop=-4;fontSize=16" parent="1" vertex="1">
          <mxGeometry x="12" y="115.5" width="190" height="20" as="geometry" />
        </mxCell>
        <mxCell id="bwt8jgNNYOY3-T8eXTDR-41" value="" style="shape=crossbar;whiteSpace=wrap;html=1;rounded=1;rotation=90;" parent="1" vertex="1">
          <mxGeometry x="576.25" y="540" width="22.5" height="15" as="geometry" />
        </mxCell>
        <mxCell id="bwt8jgNNYOY3-T8eXTDR-49" value="" style="line;strokeWidth=2;html=1;fontSize=14;" parent="1" vertex="1">
          <mxGeometry x="8" y="140.5" width="1060" height="10" as="geometry" />
        </mxCell>
        <mxCell id="AG2WPp31ISUB299ihtxD-2" value="" style="shape=mxgraph.mockup.containers.marginRect;rectMarginTop=10;strokeColor=#666666;strokeWidth=1;dashed=0;rounded=1;arcSize=5;recursiveResize=0;" parent="1" vertex="1">
          <mxGeometry x="272" y="150.5" width="538" height="574" as="geometry" />
        </mxCell>
        <mxCell id="AG2WPp31ISUB299ihtxD-3" value="Environment" style="shape=rect;strokeColor=none;fillColor=#008cff;strokeWidth=1;dashed=0;rounded=1;arcSize=20;fontColor=#ffffff;fontSize=17;spacing=2;spacingTop=-2;align=left;autosize=1;spacingLeft=4;resizeWidth=0;resizeHeight=0;perimeter=none;" parent="AG2WPp31ISUB299ihtxD-2" vertex="1">
          <mxGeometry x="5" width="120" height="30" as="geometry" />
        </mxCell>
        <mxCell id="AG2WPp31ISUB299ihtxD-47" style="edgeStyle=orthogonalEdgeStyle;rounded=0;orthogonalLoop=1;jettySize=auto;html=1;exitX=1;exitY=0.5;exitDx=0;exitDy=0;entryX=0;entryY=0.5;entryDx=0;entryDy=0;" parent="AG2WPp31ISUB299ihtxD-2" source="AG2WPp31ISUB299ihtxD-1" target="AG2WPp31ISUB299ihtxD-5" edge="1">
          <mxGeometry relative="1" as="geometry" />
        </mxCell>
        <mxCell id="AG2WPp31ISUB299ihtxD-1" value="HC" style="shape=image;html=1;verticalAlign=top;verticalLabelPosition=bottom;labelBackgroundColor=#ffffff;imageAspect=0;aspect=fixed;image=https://cdn0.iconfinder.com/data/icons/small-n-flat/24/678089-component-128.png" parent="AG2WPp31ISUB299ihtxD-2" vertex="1">
          <mxGeometry x="18" y="209.5" width="38" height="38" as="geometry" />
        </mxCell>
        <mxCell id="AG2WPp31ISUB299ihtxD-46" style="edgeStyle=orthogonalEdgeStyle;rounded=0;orthogonalLoop=1;jettySize=auto;html=1;exitX=0;exitY=0.5;exitDx=0;exitDy=0;entryX=1;entryY=0.5;entryDx=0;entryDy=0;" parent="AG2WPp31ISUB299ihtxD-2" source="AG2WPp31ISUB299ihtxD-5" target="AG2WPp31ISUB299ihtxD-1" edge="1">
          <mxGeometry relative="1" as="geometry" />
        </mxCell>
        <mxCell id="AG2WPp31ISUB299ihtxD-50" style="edgeStyle=orthogonalEdgeStyle;rounded=0;orthogonalLoop=1;jettySize=auto;html=1;entryX=0;entryY=0.5;entryDx=0;entryDy=0;" parent="AG2WPp31ISUB299ihtxD-2" target="AG2WPp31ISUB299ihtxD-15" edge="1">
          <mxGeometry relative="1" as="geometry">
            <mxPoint x="276" y="270.5" as="sourcePoint" />
            <Array as="points">
              <mxPoint x="318" y="271" />
              <mxPoint x="318" y="190" />
            </Array>
          </mxGeometry>
        </mxCell>
        <mxCell id="AG2WPp31ISUB299ihtxD-52" style="edgeStyle=orthogonalEdgeStyle;rounded=0;orthogonalLoop=1;jettySize=auto;html=1;exitX=1;exitY=0;exitDx=0;exitDy=0;entryX=0;entryY=0.5;entryDx=0;entryDy=0;" parent="AG2WPp31ISUB299ihtxD-2" source="AG2WPp31ISUB299ihtxD-5" target="AG2WPp31ISUB299ihtxD-14" edge="1">
          <mxGeometry relative="1" as="geometry" />
        </mxCell>
        <mxCell id="AG2WPp31ISUB299ihtxD-56" style="edgeStyle=orthogonalEdgeStyle;rounded=0;orthogonalLoop=1;jettySize=auto;html=1;exitX=1;exitY=0.5;exitDx=0;exitDy=0;entryX=0;entryY=0.5;entryDx=0;entryDy=0;" parent="AG2WPp31ISUB299ihtxD-2" source="AG2WPp31ISUB299ihtxD-5" target="AG2WPp31ISUB299ihtxD-22" edge="1">
          <mxGeometry relative="1" as="geometry" />
        </mxCell>
        <mxCell id="xKFbph29cd6-ZdHVKOAd-1" style="edgeStyle=orthogonalEdgeStyle;rounded=0;orthogonalLoop=1;jettySize=auto;html=1;exitX=1;exitY=0.75;exitDx=0;exitDy=0;entryX=0;entryY=0.5;entryDx=0;entryDy=0;" edge="1" parent="AG2WPp31ISUB299ihtxD-2" source="AG2WPp31ISUB299ihtxD-5" target="AG2WPp31ISUB299ihtxD-23">
          <mxGeometry relative="1" as="geometry" />
        </mxCell>
        <mxCell id="xKFbph29cd6-ZdHVKOAd-3" style="edgeStyle=orthogonalEdgeStyle;rounded=0;orthogonalLoop=1;jettySize=auto;html=1;exitX=1;exitY=1;exitDx=0;exitDy=0;entryX=0;entryY=0.5;entryDx=0;entryDy=0;" edge="1" parent="AG2WPp31ISUB299ihtxD-2" source="AG2WPp31ISUB299ihtxD-5" target="AG2WPp31ISUB299ihtxD-24">
          <mxGeometry relative="1" as="geometry" />
        </mxCell>
        <mxCell id="AG2WPp31ISUB299ihtxD-5" value="SC" style="shape=image;html=1;verticalAlign=top;verticalLabelPosition=bottom;labelBackgroundColor=#ffffff;imageAspect=0;aspect=fixed;image=https://cdn0.iconfinder.com/data/icons/small-n-flat/24/678089-component-128.png" parent="AG2WPp31ISUB299ihtxD-2" vertex="1">
          <mxGeometry x="238" y="259.5" width="38" height="38" as="geometry" />
        </mxCell>
        <mxCell id="AG2WPp31ISUB299ihtxD-53" style="edgeStyle=orthogonalEdgeStyle;rounded=0;orthogonalLoop=1;jettySize=auto;html=1;exitX=0;exitY=0.5;exitDx=0;exitDy=0;entryX=1;entryY=0;entryDx=0;entryDy=0;" parent="AG2WPp31ISUB299ihtxD-2" source="AG2WPp31ISUB299ihtxD-14" target="AG2WPp31ISUB299ihtxD-5" edge="1">
          <mxGeometry relative="1" as="geometry" />
        </mxCell>
        <mxCell id="AG2WPp31ISUB299ihtxD-14" value="CC" style="shape=image;html=1;verticalAlign=top;verticalLabelPosition=bottom;labelBackgroundColor=#ffffff;imageAspect=0;aspect=fixed;image=https://cdn0.iconfinder.com/data/icons/small-n-flat/24/678089-component-128.png" parent="AG2WPp31ISUB299ihtxD-2" vertex="1">
          <mxGeometry x="398" y="99.5" width="38" height="38" as="geometry" />
        </mxCell>
        <mxCell id="AG2WPp31ISUB299ihtxD-51" style="edgeStyle=orthogonalEdgeStyle;rounded=0;orthogonalLoop=1;jettySize=auto;html=1;exitX=0;exitY=0.5;exitDx=0;exitDy=0;entryX=1;entryY=0.25;entryDx=0;entryDy=0;" parent="AG2WPp31ISUB299ihtxD-2" edge="1">
          <mxGeometry relative="1" as="geometry">
            <mxPoint x="400" y="191.50000000000006" as="sourcePoint" />
            <mxPoint x="276" y="269.99999999999994" as="targetPoint" />
            <Array as="points">
              <mxPoint x="318" y="191" />
              <mxPoint x="318" y="270" />
            </Array>
          </mxGeometry>
        </mxCell>
        <mxCell id="AG2WPp31ISUB299ihtxD-15" value="&lt;span style=&quot;color: rgb(0 , 0 , 0) ; font-family: &amp;#34;helvetica&amp;#34; ; font-size: 12px ; font-style: normal ; font-weight: normal ; letter-spacing: normal ; text-align: center ; text-indent: 0px ; text-transform: none ; word-spacing: 0px ; background-color: rgb(255 , 255 , 255) ; text-decoration: none ; display: inline ; float: none&quot;&gt;DC&lt;/span&gt;" style="shape=image;html=1;verticalAlign=top;verticalLabelPosition=bottom;labelBackgroundColor=#ffffff;imageAspect=0;aspect=fixed;image=https://cdn0.iconfinder.com/data/icons/small-n-flat/24/678089-component-128.png" parent="AG2WPp31ISUB299ihtxD-2" vertex="1">
          <mxGeometry x="400" y="171.5" width="38" height="38" as="geometry" />
        </mxCell>
        <mxCell id="AG2WPp31ISUB299ihtxD-54" style="edgeStyle=orthogonalEdgeStyle;rounded=0;orthogonalLoop=1;jettySize=auto;html=1;exitX=0;exitY=0.5;exitDx=0;exitDy=0;entryX=1;entryY=0.5;entryDx=0;entryDy=0;" parent="AG2WPp31ISUB299ihtxD-2" source="AG2WPp31ISUB299ihtxD-22" target="AG2WPp31ISUB299ihtxD-5" edge="1">
          <mxGeometry relative="1" as="geometry" />
        </mxCell>
        <mxCell id="AG2WPp31ISUB299ihtxD-22" value="&lt;span style=&quot;color: rgb(0 , 0 , 0) ; font-family: &amp;#34;helvetica&amp;#34; ; font-size: 12px ; font-style: normal ; font-weight: normal ; letter-spacing: normal ; text-align: center ; text-indent: 0px ; text-transform: none ; word-spacing: 0px ; background-color: rgb(255 , 255 , 255) ; text-decoration: none ; display: inline ; float: none&quot;&gt;FC&lt;/span&gt;" style="shape=image;html=1;verticalAlign=top;verticalLabelPosition=bottom;labelBackgroundColor=#ffffff;imageAspect=0;aspect=fixed;image=https://cdn0.iconfinder.com/data/icons/small-n-flat/24/678089-component-128.png" parent="AG2WPp31ISUB299ihtxD-2" vertex="1">
          <mxGeometry x="398" y="259.5" width="38" height="38" as="geometry" />
        </mxCell>
        <mxCell id="xKFbph29cd6-ZdHVKOAd-2" style="edgeStyle=orthogonalEdgeStyle;rounded=0;orthogonalLoop=1;jettySize=auto;html=1;exitX=0;exitY=0.5;exitDx=0;exitDy=0;entryX=1;entryY=0.75;entryDx=0;entryDy=0;" edge="1" parent="AG2WPp31ISUB299ihtxD-2" source="AG2WPp31ISUB299ihtxD-23" target="AG2WPp31ISUB299ihtxD-5">
          <mxGeometry relative="1" as="geometry" />
        </mxCell>
        <mxCell id="AG2WPp31ISUB299ihtxD-23" value="&lt;span style=&quot;color: rgb(0 , 0 , 0) ; font-family: &amp;#34;helvetica&amp;#34; ; font-size: 12px ; font-style: normal ; font-weight: normal ; letter-spacing: normal ; text-align: center ; text-indent: 0px ; text-transform: none ; word-spacing: 0px ; background-color: rgb(255 , 255 , 255) ; text-decoration: none ; display: inline ; float: none&quot;&gt;OC&lt;/span&gt;" style="shape=image;html=1;verticalAlign=top;verticalLabelPosition=bottom;labelBackgroundColor=#ffffff;imageAspect=0;aspect=fixed;image=https://cdn0.iconfinder.com/data/icons/small-n-flat/24/678089-component-128.png" parent="AG2WPp31ISUB299ihtxD-2" vertex="1">
          <mxGeometry x="398" y="329.5" width="38" height="38" as="geometry" />
        </mxCell>
        <mxCell id="xKFbph29cd6-ZdHVKOAd-4" style="edgeStyle=orthogonalEdgeStyle;rounded=0;orthogonalLoop=1;jettySize=auto;html=1;exitX=0;exitY=0.5;exitDx=0;exitDy=0;entryX=1;entryY=1;entryDx=0;entryDy=0;" edge="1" parent="AG2WPp31ISUB299ihtxD-2" source="AG2WPp31ISUB299ihtxD-24" target="AG2WPp31ISUB299ihtxD-5">
          <mxGeometry relative="1" as="geometry" />
        </mxCell>
        <mxCell id="AG2WPp31ISUB299ihtxD-24" value="&lt;span style=&quot;color: rgb(0 , 0 , 0) ; font-family: &amp;#34;helvetica&amp;#34; ; font-size: 12px ; font-style: normal ; font-weight: normal ; letter-spacing: normal ; text-align: center ; text-indent: 0px ; text-transform: none ; word-spacing: 0px ; background-color: rgb(255 , 255 , 255) ; text-decoration: none ; display: inline ; float: none&quot;&gt;PC&lt;/span&gt;" style="shape=image;html=1;verticalAlign=top;verticalLabelPosition=bottom;labelBackgroundColor=#ffffff;imageAspect=0;aspect=fixed;image=https://cdn0.iconfinder.com/data/icons/small-n-flat/24/678089-component-128.png" parent="AG2WPp31ISUB299ihtxD-2" vertex="1">
          <mxGeometry x="398" y="399.5" width="38" height="38" as="geometry" />
        </mxCell>
        <mxCell id="AG2WPp31ISUB299ihtxD-26" value="&lt;br&gt;&lt;br&gt;&lt;br&gt;Data" style="html=1;aspect=fixed;strokeColor=none;shadow=0;align=center;verticalAlign=top;fillColor=#3B8DF1;shape=mxgraph.gcp2.files" parent="AG2WPp31ISUB299ihtxD-2" vertex="1">
          <mxGeometry x="468" y="199.5" width="41.24" height="40" as="geometry" />
        </mxCell>
        <mxCell id="AG2WPp31ISUB299ihtxD-28" value="" style="shape=mxgraph.mockup.containers.marginRect;rectMarginTop=10;strokeColor=#666666;strokeWidth=1;dashed=0;rounded=1;arcSize=5;recursiveResize=0;" parent="1" vertex="1">
          <mxGeometry x="64.5" y="220" width="155" height="290" as="geometry" />
        </mxCell>
        <mxCell id="AG2WPp31ISUB299ihtxD-29" value="Extenal&#xa;Environment" style="shape=rect;strokeColor=none;fillColor=#008cff;strokeWidth=1;dashed=0;rounded=1;arcSize=20;fontColor=#ffffff;fontSize=17;spacing=2;spacingTop=-2;align=left;autosize=1;spacingLeft=4;resizeWidth=0;resizeHeight=0;perimeter=none;" parent="AG2WPp31ISUB299ihtxD-28" vertex="1">
          <mxGeometry x="5" y="-10" width="125" height="50" as="geometry" />
        </mxCell>
        <mxCell id="AG2WPp31ISUB299ihtxD-39" value="" style="shape=image;html=1;verticalAlign=top;verticalLabelPosition=bottom;labelBackgroundColor=#ffffff;imageAspect=0;aspect=fixed;image=https://cdn1.iconfinder.com/data/icons/computer-hardware-cute-style-vol-2/52/print__outline__printer__document__office__computer__networkprinter-128.png" parent="AG2WPp31ISUB299ihtxD-28" vertex="1">
          <mxGeometry x="47.5" y="60" width="40" height="40" as="geometry" />
        </mxCell>
        <mxCell id="AG2WPp31ISUB299ihtxD-40" value="" style="shape=image;html=1;verticalAlign=top;verticalLabelPosition=bottom;labelBackgroundColor=#ffffff;imageAspect=0;aspect=fixed;image=https://cdn1.iconfinder.com/data/icons/coronavirus-disease/64/fever_scanner-128.png" parent="AG2WPp31ISUB299ihtxD-28" vertex="1">
          <mxGeometry x="47.5" y="125" width="40" height="40" as="geometry" />
        </mxCell>
        <mxCell id="AG2WPp31ISUB299ihtxD-43" value="" style="shape=image;html=1;verticalAlign=top;verticalLabelPosition=bottom;labelBackgroundColor=#ffffff;imageAspect=0;aspect=fixed;image=https://cdn3.iconfinder.com/data/icons/shopping-and-retail-15/512/Payment-128.png" parent="AG2WPp31ISUB299ihtxD-28" vertex="1">
          <mxGeometry x="57.5" y="180" width="40" height="40" as="geometry" />
        </mxCell>
        <mxCell id="AG2WPp31ISUB299ihtxD-44" value="" style="shape=image;html=1;verticalAlign=top;verticalLabelPosition=bottom;labelBackgroundColor=#ffffff;imageAspect=0;aspect=fixed;image=https://cdn2.iconfinder.com/data/icons/furniture-269/32/Artboard_41-128.png" parent="AG2WPp31ISUB299ihtxD-28" vertex="1">
          <mxGeometry x="53.75" y="232.5" width="47.5" height="47.5" as="geometry" />
        </mxCell>
        <mxCell id="AG2WPp31ISUB299ihtxD-45" style="edgeStyle=orthogonalEdgeStyle;rounded=0;orthogonalLoop=1;jettySize=auto;html=1;exitX=0;exitY=0.5;exitDx=0;exitDy=0;entryX=1.013;entryY=0.547;entryDx=0;entryDy=0;entryPerimeter=0;" parent="1" source="AG2WPp31ISUB299ihtxD-1" target="AG2WPp31ISUB299ihtxD-28" edge="1">
          <mxGeometry relative="1" as="geometry" />
        </mxCell>
      </root>
    </mxGraphModel>
  </diagram>
  <diagram id="MGfQ_S6StoyqCkcG_YU1" name="Simple Query Interaction">
    <mxGraphModel dx="788" dy="552" grid="1" gridSize="10" guides="1" tooltips="1" connect="1" arrows="1" fold="1" page="1" pageScale="1" pageWidth="583" pageHeight="413" math="0" shadow="0">
      <root>
        <mxCell id="5uC7GMBCHUU2KOciokQW-0" />
        <mxCell id="5uC7GMBCHUU2KOciokQW-1" parent="5uC7GMBCHUU2KOciokQW-0" />
        <mxCell id="ccUjn54pVpTTam-t7Y5S-0" value="" style="group" parent="5uC7GMBCHUU2KOciokQW-1" vertex="1" connectable="0">
          <mxGeometry x="8" y="65.5" width="1060" height="85" as="geometry" />
        </mxCell>
        <mxCell id="ccUjn54pVpTTam-t7Y5S-1" value="Visual Mix - vm-jade-api" style="text;html=1;resizable=0;points=[];autosize=1;align=left;verticalAlign=top;spacingTop=-4;fontSize=30;fontStyle=1" parent="ccUjn54pVpTTam-t7Y5S-0" vertex="1">
          <mxGeometry x="4" width="360" height="40" as="geometry" />
        </mxCell>
        <mxCell id="ccUjn54pVpTTam-t7Y5S-3" value="" style="line;strokeWidth=2;html=1;fontSize=14;" parent="ccUjn54pVpTTam-t7Y5S-0" vertex="1">
          <mxGeometry y="75" width="1060" height="10" as="geometry" />
        </mxCell>
        <mxCell id="Xy7LeYJcgl7Ycssv4aqb-3" value="Simple Interaction &amp;nbsp;- Jade API Process - Query" style="fontStyle=0;verticalAlign=top;align=center;spacingTop=-2;fillColor=none;rounded=0;whiteSpace=wrap;html=1;strokeColor=#FF0000;strokeWidth=2;dashed=1;container=1;collapsible=0;expand=0;recursiveResize=0;fontSize=20;" parent="5uC7GMBCHUU2KOciokQW-1" vertex="1">
          <mxGeometry x="8" y="193" width="1062" height="307" as="geometry" />
        </mxCell>
        <mxCell id="Xy7LeYJcgl7Ycssv4aqb-9" value="" style="html=1;dashed=0;whitespace=wrap;shape=mxgraph.dfd.start" parent="Xy7LeYJcgl7Ycssv4aqb-3" vertex="1">
          <mxGeometry x="77" y="78" width="80" height="30" as="geometry" />
        </mxCell>
        <mxCell id="Xy7LeYJcgl7Ycssv4aqb-12" style="edgeStyle=orthogonalEdgeStyle;rounded=0;orthogonalLoop=1;jettySize=auto;html=1;exitX=0.5;exitY=0.5;exitDx=0;exitDy=15;exitPerimeter=0;entryX=0.5;entryY=0;entryDx=0;entryDy=0;" parent="Xy7LeYJcgl7Ycssv4aqb-3" source="Xy7LeYJcgl7Ycssv4aqb-9" target="Xy7LeYJcgl7Ycssv4aqb-20" edge="1">
          <mxGeometry relative="1" as="geometry">
            <mxPoint x="117" y="138" as="targetPoint" />
          </mxGeometry>
        </mxCell>
        <mxCell id="wa8sgu-IX3YlQGFSYtbL-9" style="edgeStyle=orthogonalEdgeStyle;rounded=0;orthogonalLoop=1;jettySize=auto;html=1;exitX=1;exitY=0.5;exitDx=0;exitDy=0;entryX=0;entryY=0.5;entryDx=0;entryDy=0;fontSize=11;" parent="Xy7LeYJcgl7Ycssv4aqb-3" source="Xy7LeYJcgl7Ycssv4aqb-20" target="wa8sgu-IX3YlQGFSYtbL-8" edge="1">
          <mxGeometry relative="1" as="geometry" />
        </mxCell>
        <mxCell id="Xy7LeYJcgl7Ycssv4aqb-20" value="API receives &lt;br&gt;EAN from &lt;br&gt;middleware" style="html=1;dashed=0;whitespace=wrap;" parent="Xy7LeYJcgl7Ycssv4aqb-3" vertex="1">
          <mxGeometry x="72" y="138" width="90" height="50" as="geometry" />
        </mxCell>
        <mxCell id="7Nfif4b1ss9Nq2-eNS39-247" style="edgeStyle=orthogonalEdgeStyle;rounded=0;orthogonalLoop=1;jettySize=auto;html=1;exitX=0.5;exitY=1;exitDx=0;exitDy=0;fontSize=11;" parent="Xy7LeYJcgl7Ycssv4aqb-3" source="Xy7LeYJcgl7Ycssv4aqb-24" target="7Nfif4b1ss9Nq2-eNS39-198" edge="1">
          <mxGeometry relative="1" as="geometry" />
        </mxCell>
        <mxCell id="Hwohq5ljSQf4fmVjeTPe-1" style="edgeStyle=orthogonalEdgeStyle;rounded=0;orthogonalLoop=1;jettySize=auto;html=1;exitX=0.5;exitY=0;exitDx=0;exitDy=0;entryX=0;entryY=0.5;entryDx=0;entryDy=0;fontSize=11;" parent="Xy7LeYJcgl7Ycssv4aqb-3" source="Xy7LeYJcgl7Ycssv4aqb-24" target="HfG4GfTrvFpY40ubBp82-19" edge="1">
          <mxGeometry relative="1" as="geometry">
            <mxPoint x="622" y="103" as="targetPoint" />
          </mxGeometry>
        </mxCell>
        <mxCell id="Xy7LeYJcgl7Ycssv4aqb-24" value="Product &lt;br&gt;Entity&lt;br&gt;matched" style="shape=rhombus;html=1;dashed=0;whitespace=wrap;perimeter=rhombusPerimeter;fontSize=11;horizontal=1;verticalAlign=middle;spacing=0;" parent="Xy7LeYJcgl7Ycssv4aqb-3" vertex="1">
          <mxGeometry x="442" y="125.38" width="90" height="75" as="geometry" />
        </mxCell>
        <mxCell id="7Nfif4b1ss9Nq2-eNS39-245" style="edgeStyle=orthogonalEdgeStyle;rounded=0;orthogonalLoop=1;jettySize=auto;html=1;exitX=1;exitY=0.5;exitDx=0;exitDy=0;fontSize=11;" parent="Xy7LeYJcgl7Ycssv4aqb-3" source="wa8sgu-IX3YlQGFSYtbL-8" target="7Nfif4b1ss9Nq2-eNS39-193" edge="1">
          <mxGeometry relative="1" as="geometry" />
        </mxCell>
        <mxCell id="wa8sgu-IX3YlQGFSYtbL-8" value="Search on &lt;br&gt;vm-products-api" style="shape=manualInput;whiteSpace=wrap;html=1;dashed=0;size=15;fontSize=11;align=center;" parent="Xy7LeYJcgl7Ycssv4aqb-3" vertex="1">
          <mxGeometry x="189" y="137.75" width="100" height="50" as="geometry" />
        </mxCell>
        <mxCell id="wa8sgu-IX3YlQGFSYtbL-15" value="&lt;font style=&quot;font-size: 12px&quot;&gt;No&lt;/font&gt;" style="text;html=1;align=center;verticalAlign=middle;resizable=0;points=[];autosize=1;fontSize=20;" parent="Xy7LeYJcgl7Ycssv4aqb-3" vertex="1">
          <mxGeometry x="485" y="198.63" width="30" height="30" as="geometry" />
        </mxCell>
        <mxCell id="7Nfif4b1ss9Nq2-eNS39-250" style="edgeStyle=orthogonalEdgeStyle;rounded=0;orthogonalLoop=1;jettySize=auto;html=1;exitX=1;exitY=0.5;exitDx=0;exitDy=0;entryX=0.5;entryY=0;entryDx=0;entryDy=0;fontSize=11;" parent="Xy7LeYJcgl7Ycssv4aqb-3" source="HfG4GfTrvFpY40ubBp82-18" target="7Nfif4b1ss9Nq2-eNS39-26" edge="1">
          <mxGeometry relative="1" as="geometry">
            <mxPoint x="807" y="103" as="sourcePoint" />
            <Array as="points">
              <mxPoint x="867" y="103" />
            </Array>
          </mxGeometry>
        </mxCell>
        <mxCell id="7Nfif4b1ss9Nq2-eNS39-9" value="&lt;font style=&quot;font-size: 12px&quot;&gt;Yes&lt;/font&gt;" style="text;html=1;align=center;verticalAlign=middle;resizable=0;points=[];autosize=1;fontSize=20;" parent="Xy7LeYJcgl7Ycssv4aqb-3" vertex="1">
          <mxGeometry x="485" y="72.88" width="40" height="30" as="geometry" />
        </mxCell>
        <mxCell id="7Nfif4b1ss9Nq2-eNS39-25" value="" style="html=1;dashed=0;whitespace=wrap;shape=mxgraph.dfd.start" parent="Xy7LeYJcgl7Ycssv4aqb-3" vertex="1">
          <mxGeometry x="952" y="147.88" width="80" height="30" as="geometry" />
        </mxCell>
        <mxCell id="7Nfif4b1ss9Nq2-eNS39-248" style="edgeStyle=orthogonalEdgeStyle;rounded=0;orthogonalLoop=1;jettySize=auto;html=1;exitX=1;exitY=0.5;exitDx=0;exitDy=0;fontSize=11;" parent="Xy7LeYJcgl7Ycssv4aqb-3" source="7Nfif4b1ss9Nq2-eNS39-26" target="7Nfif4b1ss9Nq2-eNS39-25" edge="1">
          <mxGeometry relative="1" as="geometry" />
        </mxCell>
        <mxCell id="7Nfif4b1ss9Nq2-eNS39-26" value="Create &lt;br&gt;response to middlewate" style="shape=parallelogram;perimeter=parallelogramPerimeter;whiteSpace=wrap;html=1;dashed=0;fontSize=11;align=center;" parent="Xy7LeYJcgl7Ycssv4aqb-3" vertex="1">
          <mxGeometry x="817" y="137.75" width="100" height="50" as="geometry" />
        </mxCell>
        <mxCell id="7Nfif4b1ss9Nq2-eNS39-196" style="edgeStyle=orthogonalEdgeStyle;rounded=0;orthogonalLoop=1;jettySize=auto;html=1;exitX=1;exitY=0.5;exitDx=0;exitDy=0;fontSize=11;" parent="Xy7LeYJcgl7Ycssv4aqb-3" source="7Nfif4b1ss9Nq2-eNS39-193" target="Xy7LeYJcgl7Ycssv4aqb-24" edge="1">
          <mxGeometry relative="1" as="geometry" />
        </mxCell>
        <mxCell id="7Nfif4b1ss9Nq2-eNS39-193" value="&lt;br&gt;&lt;br&gt;&lt;br&gt;&lt;br&gt;vm-products-api(Rotine)&lt;br&gt;FindByBarcode" style="shape=ellipse;html=1;dashed=0;whitespace=wrap;perimeter=ellipsePerimeter;fontSize=11;align=center;" parent="Xy7LeYJcgl7Ycssv4aqb-3" vertex="1">
          <mxGeometry x="342" y="148" width="30" height="30" as="geometry" />
        </mxCell>
        <mxCell id="7Nfif4b1ss9Nq2-eNS39-249" style="edgeStyle=orthogonalEdgeStyle;rounded=0;orthogonalLoop=1;jettySize=auto;html=1;exitX=1;exitY=0.5;exitDx=0;exitDy=0;fontSize=11;" parent="Xy7LeYJcgl7Ycssv4aqb-3" source="7Nfif4b1ss9Nq2-eNS39-198" target="7Nfif4b1ss9Nq2-eNS39-26" edge="1">
          <mxGeometry relative="1" as="geometry" />
        </mxCell>
        <mxCell id="7Nfif4b1ss9Nq2-eNS39-198" value="Create error message" style="shape=parallelogram;perimeter=parallelogramPerimeter;whiteSpace=wrap;html=1;dashed=0;fontSize=11;align=center;" parent="Xy7LeYJcgl7Ycssv4aqb-3" vertex="1">
          <mxGeometry x="702" y="200.38" width="100" height="50" as="geometry" />
        </mxCell>
        <mxCell id="HfG4GfTrvFpY40ubBp82-20" style="edgeStyle=orthogonalEdgeStyle;rounded=0;orthogonalLoop=1;jettySize=auto;html=1;exitX=1;exitY=0.5;exitDx=0;exitDy=0;entryX=0;entryY=0.5;entryDx=0;entryDy=0;fontSize=11;" parent="Xy7LeYJcgl7Ycssv4aqb-3" source="HfG4GfTrvFpY40ubBp82-19" target="HfG4GfTrvFpY40ubBp82-18" edge="1">
          <mxGeometry relative="1" as="geometry" />
        </mxCell>
        <mxCell id="HfG4GfTrvFpY40ubBp82-19" value="Create &lt;br&gt;Product Object" style="shape=parallelogram;perimeter=parallelogramPerimeter;whiteSpace=wrap;html=1;dashed=0;fontSize=11;align=center;" parent="Xy7LeYJcgl7Ycssv4aqb-3" vertex="1">
          <mxGeometry x="575" y="78" width="100" height="50" as="geometry" />
        </mxCell>
        <mxCell id="HfG4GfTrvFpY40ubBp82-18" value="&lt;br&gt;&lt;br&gt;&lt;br&gt;&lt;br&gt;Weight product(Rotine)&lt;br&gt;Jade API" style="shape=ellipse;html=1;dashed=0;whitespace=wrap;perimeter=ellipsePerimeter;fontSize=11;align=center;" parent="Xy7LeYJcgl7Ycssv4aqb-3" vertex="1">
          <mxGeometry x="737" y="88" width="30" height="30" as="geometry" />
        </mxCell>
        <mxCell id="7RX9u6J-1jgTOUHh86-Q-0" value="Simple Interaction &amp;nbsp;- Products API Process -Weight Product" style="fontStyle=0;verticalAlign=top;align=center;spacingTop=-2;fillColor=none;rounded=0;whiteSpace=wrap;html=1;strokeColor=#FF0000;strokeWidth=2;dashed=1;container=1;collapsible=0;expand=0;recursiveResize=0;fontSize=20;" parent="5uC7GMBCHUU2KOciokQW-1" vertex="1">
          <mxGeometry x="8" y="850" width="1062" height="310" as="geometry" />
        </mxCell>
        <mxCell id="7RX9u6J-1jgTOUHh86-Q-1" value="" style="html=1;dashed=0;whitespace=wrap;shape=mxgraph.dfd.start" parent="7RX9u6J-1jgTOUHh86-Q-0" vertex="1">
          <mxGeometry x="64" y="52.25" width="80" height="30" as="geometry" />
        </mxCell>
        <mxCell id="7RX9u6J-1jgTOUHh86-Q-2" style="edgeStyle=orthogonalEdgeStyle;rounded=0;orthogonalLoop=1;jettySize=auto;html=1;exitX=0.5;exitY=0.5;exitDx=0;exitDy=15;exitPerimeter=0;entryX=0.5;entryY=0;entryDx=0;entryDy=0;" parent="7RX9u6J-1jgTOUHh86-Q-0" source="7RX9u6J-1jgTOUHh86-Q-1" target="7RX9u6J-1jgTOUHh86-Q-10" edge="1">
          <mxGeometry relative="1" as="geometry">
            <mxPoint x="104" y="116" as="targetPoint" />
          </mxGeometry>
        </mxCell>
        <mxCell id="7RX9u6J-1jgTOUHh86-Q-3" value="" style="html=1;dashed=0;whitespace=wrap;shape=mxgraph.dfd.start" parent="7RX9u6J-1jgTOUHh86-Q-0" vertex="1">
          <mxGeometry x="596" y="156.5" width="80" height="30" as="geometry" />
        </mxCell>
        <mxCell id="7RX9u6J-1jgTOUHh86-Q-4" style="edgeStyle=orthogonalEdgeStyle;rounded=0;orthogonalLoop=1;jettySize=auto;html=1;exitX=0.5;exitY=0;exitDx=0;exitDy=0;entryX=0;entryY=0.5;entryDx=0;entryDy=0;fontSize=11;" parent="7RX9u6J-1jgTOUHh86-Q-0" source="7RX9u6J-1jgTOUHh86-Q-6" target="7RX9u6J-1jgTOUHh86-Q-12" edge="1">
          <mxGeometry relative="1" as="geometry">
            <mxPoint x="346" y="64" as="targetPoint" />
          </mxGeometry>
        </mxCell>
        <mxCell id="7RX9u6J-1jgTOUHh86-Q-5" style="edgeStyle=orthogonalEdgeStyle;rounded=0;orthogonalLoop=1;jettySize=auto;html=1;exitX=0.5;exitY=1;exitDx=0;exitDy=0;fontSize=11;" parent="7RX9u6J-1jgTOUHh86-Q-0" source="7RX9u6J-1jgTOUHh86-Q-6" target="7RX9u6J-1jgTOUHh86-Q-14" edge="1">
          <mxGeometry relative="1" as="geometry" />
        </mxCell>
        <mxCell id="7RX9u6J-1jgTOUHh86-Q-6" value="peso_variavel&lt;br&gt;&amp;nbsp;or&amp;nbsp;qtd_decimal&amp;nbsp;&lt;br&gt;equals 0" style="shape=rhombus;html=1;dashed=0;whitespace=wrap;perimeter=rhombusPerimeter;fontSize=11;horizontal=1;verticalAlign=middle;spacing=0;" parent="7RX9u6J-1jgTOUHh86-Q-0" vertex="1">
          <mxGeometry x="204" y="115.25" width="111" height="92.5" as="geometry" />
        </mxCell>
        <mxCell id="7RX9u6J-1jgTOUHh86-Q-7" value="&lt;font style=&quot;font-size: 12px&quot;&gt;No&lt;/font&gt;" style="text;html=1;align=center;verticalAlign=middle;resizable=0;points=[];autosize=1;fontSize=20;" parent="7RX9u6J-1jgTOUHh86-Q-0" vertex="1">
          <mxGeometry x="259" y="89" width="30" height="30" as="geometry" />
        </mxCell>
        <mxCell id="7RX9u6J-1jgTOUHh86-Q-8" value="&lt;font style=&quot;font-size: 12px&quot;&gt;Yes&lt;/font&gt;" style="text;html=1;align=center;verticalAlign=middle;resizable=0;points=[];autosize=1;fontSize=20;" parent="7RX9u6J-1jgTOUHh86-Q-0" vertex="1">
          <mxGeometry x="249" y="196.5" width="40" height="30" as="geometry" />
        </mxCell>
        <mxCell id="7RX9u6J-1jgTOUHh86-Q-9" style="edgeStyle=orthogonalEdgeStyle;rounded=0;orthogonalLoop=1;jettySize=auto;html=1;exitX=1;exitY=0.5;exitDx=0;exitDy=0;entryX=0;entryY=0.5;entryDx=0;entryDy=0;fontSize=11;" parent="7RX9u6J-1jgTOUHh86-Q-0" source="7RX9u6J-1jgTOUHh86-Q-10" target="7RX9u6J-1jgTOUHh86-Q-6" edge="1">
          <mxGeometry relative="1" as="geometry" />
        </mxCell>
        <mxCell id="7RX9u6J-1jgTOUHh86-Q-10" value="Receives Product Entity" style="shape=document;whiteSpace=wrap;html=1;boundedLbl=1;dashed=0;flipH=1;fontSize=11;align=center;" parent="7RX9u6J-1jgTOUHh86-Q-0" vertex="1">
          <mxGeometry x="54" y="126.5" width="100" height="70" as="geometry" />
        </mxCell>
        <mxCell id="7RX9u6J-1jgTOUHh86-Q-11" style="edgeStyle=orthogonalEdgeStyle;rounded=0;orthogonalLoop=1;jettySize=auto;html=1;exitX=1;exitY=0.5;exitDx=0;exitDy=0;entryX=0.5;entryY=0;entryDx=0;entryDy=0;fontSize=11;" parent="7RX9u6J-1jgTOUHh86-Q-0" source="7RX9u6J-1jgTOUHh86-Q-12" target="7RX9u6J-1jgTOUHh86-Q-16" edge="1">
          <mxGeometry relative="1" as="geometry" />
        </mxCell>
        <mxCell id="7RX9u6J-1jgTOUHh86-Q-12" value="&lt;font style=&quot;font-size: 11px&quot;&gt;Set attribute &lt;br&gt;obligatory&lt;br&gt;&lt;span style=&quot;color: rgba(0 , 0 , 0 , 0.87) ; font-family: &amp;#34;arial&amp;#34; , sans-serif ; text-align: left ; background-color: rgb(255 , 255 , 255)&quot;&gt;measure true&lt;/span&gt;&lt;/font&gt;" style="shape=parallelogram;perimeter=parallelogramPerimeter;whiteSpace=wrap;html=1;dashed=0;fontSize=11;align=center;" parent="7RX9u6J-1jgTOUHh86-Q-0" vertex="1">
          <mxGeometry x="354" y="69" width="100" height="50" as="geometry" />
        </mxCell>
        <mxCell id="7RX9u6J-1jgTOUHh86-Q-13" style="edgeStyle=orthogonalEdgeStyle;rounded=0;orthogonalLoop=1;jettySize=auto;html=1;exitX=1;exitY=0.75;exitDx=0;exitDy=0;entryX=0.5;entryY=1;entryDx=0;entryDy=0;fontSize=11;" parent="7RX9u6J-1jgTOUHh86-Q-0" source="7RX9u6J-1jgTOUHh86-Q-14" target="7RX9u6J-1jgTOUHh86-Q-16" edge="1">
          <mxGeometry relative="1" as="geometry" />
        </mxCell>
        <mxCell id="7RX9u6J-1jgTOUHh86-Q-14" value="&lt;font style=&quot;font-size: 10px&quot;&gt;Set attribute&amp;nbsp;&lt;br&gt;obligatory&lt;br&gt;&lt;span style=&quot;color: rgba(0 , 0 , 0 , 0.87) ; font-family: &amp;#34;arial&amp;#34; , sans-serif ; text-align: left ; background-color: rgb(255 , 255 , 255)&quot;&gt;measure false&lt;/span&gt;&lt;/font&gt;" style="shape=parallelogram;perimeter=parallelogramPerimeter;whiteSpace=wrap;html=1;dashed=0;fontSize=11;align=center;" parent="7RX9u6J-1jgTOUHh86-Q-0" vertex="1">
          <mxGeometry x="344" y="207.75" width="100" height="50" as="geometry" />
        </mxCell>
        <mxCell id="7RX9u6J-1jgTOUHh86-Q-15" style="edgeStyle=orthogonalEdgeStyle;rounded=0;orthogonalLoop=1;jettySize=auto;html=1;exitX=1;exitY=0.5;exitDx=0;exitDy=0;entryX=0;entryY=0.5;entryDx=0;entryDy=0;entryPerimeter=0;fontSize=11;" parent="7RX9u6J-1jgTOUHh86-Q-0" source="7RX9u6J-1jgTOUHh86-Q-16" target="7RX9u6J-1jgTOUHh86-Q-3" edge="1">
          <mxGeometry relative="1" as="geometry" />
        </mxCell>
        <mxCell id="7RX9u6J-1jgTOUHh86-Q-16" value="&amp;nbsp; &amp;nbsp;Entity Product&lt;br&gt;with new&lt;br&gt;&amp;nbsp;attribute&amp;nbsp;" style="shape=parallelogram;perimeter=parallelogramPerimeter;whiteSpace=wrap;html=1;dashed=0;fontSize=11;align=center;" parent="7RX9u6J-1jgTOUHh86-Q-0" vertex="1">
          <mxGeometry x="484" y="146.5" width="100" height="50" as="geometry" />
        </mxCell>
        <mxCell id="HfG4GfTrvFpY40ubBp82-0" value="Simple Interaction &amp;nbsp;- Jade API Process -Weight Product" style="fontStyle=0;verticalAlign=top;align=center;spacingTop=-2;fillColor=none;rounded=0;whiteSpace=wrap;html=1;strokeColor=#FF0000;strokeWidth=2;dashed=1;container=1;collapsible=0;expand=0;recursiveResize=0;fontSize=20;" parent="5uC7GMBCHUU2KOciokQW-1" vertex="1">
          <mxGeometry x="8" y="520" width="1062" height="312" as="geometry" />
        </mxCell>
        <mxCell id="HfG4GfTrvFpY40ubBp82-1" value="" style="html=1;dashed=0;whitespace=wrap;shape=mxgraph.dfd.start" parent="HfG4GfTrvFpY40ubBp82-0" vertex="1">
          <mxGeometry x="62" y="70" width="80" height="30" as="geometry" />
        </mxCell>
        <mxCell id="HfG4GfTrvFpY40ubBp82-2" style="edgeStyle=orthogonalEdgeStyle;rounded=0;orthogonalLoop=1;jettySize=auto;html=1;exitX=0.5;exitY=0.5;exitDx=0;exitDy=15;exitPerimeter=0;entryX=0.5;entryY=0;entryDx=0;entryDy=0;" parent="HfG4GfTrvFpY40ubBp82-0" source="HfG4GfTrvFpY40ubBp82-1" target="HfG4GfTrvFpY40ubBp82-10" edge="1">
          <mxGeometry relative="1" as="geometry">
            <mxPoint x="102" y="133.75" as="targetPoint" />
          </mxGeometry>
        </mxCell>
        <mxCell id="HfG4GfTrvFpY40ubBp82-3" value="" style="html=1;dashed=0;whitespace=wrap;shape=mxgraph.dfd.start" parent="HfG4GfTrvFpY40ubBp82-0" vertex="1">
          <mxGeometry x="592" y="174.25" width="80" height="30" as="geometry" />
        </mxCell>
        <mxCell id="HfG4GfTrvFpY40ubBp82-4" style="edgeStyle=orthogonalEdgeStyle;rounded=0;orthogonalLoop=1;jettySize=auto;html=1;exitX=0.5;exitY=0;exitDx=0;exitDy=0;entryX=0;entryY=0.5;entryDx=0;entryDy=0;fontSize=11;" parent="HfG4GfTrvFpY40ubBp82-0" source="HfG4GfTrvFpY40ubBp82-6" target="HfG4GfTrvFpY40ubBp82-12" edge="1">
          <mxGeometry relative="1" as="geometry">
            <mxPoint x="344" y="81.75" as="targetPoint" />
          </mxGeometry>
        </mxCell>
        <mxCell id="HfG4GfTrvFpY40ubBp82-5" style="edgeStyle=orthogonalEdgeStyle;rounded=0;orthogonalLoop=1;jettySize=auto;html=1;exitX=0.5;exitY=1;exitDx=0;exitDy=0;fontSize=11;" parent="HfG4GfTrvFpY40ubBp82-0" source="HfG4GfTrvFpY40ubBp82-6" target="HfG4GfTrvFpY40ubBp82-14" edge="1">
          <mxGeometry relative="1" as="geometry" />
        </mxCell>
        <mxCell id="HfG4GfTrvFpY40ubBp82-6" value="&lt;span&gt;Attribute&amp;nbsp;&lt;/span&gt;&lt;br&gt;&lt;span&gt;obligatory&lt;/span&gt;&lt;br&gt;&lt;span style=&quot;color: rgba(0 , 0 , 0 , 0.87) ; font-family: &amp;#34;arial&amp;#34; , sans-serif ; text-align: left ; background-color: rgb(255 , 255 , 255)&quot;&gt;measure&amp;nbsp;&lt;/span&gt;" style="shape=rhombus;html=1;dashed=0;whitespace=wrap;perimeter=rhombusPerimeter;fontSize=11;horizontal=1;verticalAlign=middle;spacing=0;" parent="HfG4GfTrvFpY40ubBp82-0" vertex="1">
          <mxGeometry x="202" y="133" width="111" height="92.5" as="geometry" />
        </mxCell>
        <mxCell id="HfG4GfTrvFpY40ubBp82-7" value="&lt;font style=&quot;font-size: 12px&quot;&gt;true&lt;/font&gt;" style="text;html=1;align=center;verticalAlign=middle;resizable=0;points=[];autosize=1;fontSize=20;" parent="HfG4GfTrvFpY40ubBp82-0" vertex="1">
          <mxGeometry x="252" y="225.5" width="40" height="30" as="geometry" />
        </mxCell>
        <mxCell id="HfG4GfTrvFpY40ubBp82-9" style="edgeStyle=orthogonalEdgeStyle;rounded=0;orthogonalLoop=1;jettySize=auto;html=1;exitX=1;exitY=0.5;exitDx=0;exitDy=0;entryX=0;entryY=0.5;entryDx=0;entryDy=0;fontSize=11;" parent="HfG4GfTrvFpY40ubBp82-0" source="HfG4GfTrvFpY40ubBp82-10" target="HfG4GfTrvFpY40ubBp82-6" edge="1">
          <mxGeometry relative="1" as="geometry" />
        </mxCell>
        <mxCell id="HfG4GfTrvFpY40ubBp82-10" value="Receives Product Entity" style="shape=document;whiteSpace=wrap;html=1;boundedLbl=1;dashed=0;flipH=1;fontSize=11;align=center;" parent="HfG4GfTrvFpY40ubBp82-0" vertex="1">
          <mxGeometry x="52" y="144.25" width="100" height="70" as="geometry" />
        </mxCell>
        <mxCell id="HfG4GfTrvFpY40ubBp82-11" style="edgeStyle=orthogonalEdgeStyle;rounded=0;orthogonalLoop=1;jettySize=auto;html=1;exitX=1;exitY=0.5;exitDx=0;exitDy=0;entryX=0.5;entryY=0;entryDx=0;entryDy=0;fontSize=11;" parent="HfG4GfTrvFpY40ubBp82-0" source="HfG4GfTrvFpY40ubBp82-12" target="HfG4GfTrvFpY40ubBp82-16" edge="1">
          <mxGeometry relative="1" as="geometry" />
        </mxCell>
        <mxCell id="HfG4GfTrvFpY40ubBp82-12" value="Set attribute &lt;br&gt;&lt;b&gt;flag &lt;/b&gt;to&lt;b&gt; 1&lt;/b&gt;" style="shape=parallelogram;perimeter=parallelogramPerimeter;whiteSpace=wrap;html=1;dashed=0;fontSize=11;align=center;" parent="HfG4GfTrvFpY40ubBp82-0" vertex="1">
          <mxGeometry x="352" y="86.75" width="100" height="50" as="geometry" />
        </mxCell>
        <mxCell id="HfG4GfTrvFpY40ubBp82-13" style="edgeStyle=orthogonalEdgeStyle;rounded=0;orthogonalLoop=1;jettySize=auto;html=1;exitX=1;exitY=0.75;exitDx=0;exitDy=0;entryX=0.5;entryY=1;entryDx=0;entryDy=0;fontSize=11;" parent="HfG4GfTrvFpY40ubBp82-0" source="HfG4GfTrvFpY40ubBp82-14" target="HfG4GfTrvFpY40ubBp82-16" edge="1">
          <mxGeometry relative="1" as="geometry" />
        </mxCell>
        <mxCell id="HfG4GfTrvFpY40ubBp82-14" value="Set attribute &lt;br&gt;&lt;b&gt;flag &lt;/b&gt;to&lt;b&gt; 2&lt;/b&gt;" style="shape=parallelogram;perimeter=parallelogramPerimeter;whiteSpace=wrap;html=1;dashed=0;fontSize=11;align=center;" parent="HfG4GfTrvFpY40ubBp82-0" vertex="1">
          <mxGeometry x="342" y="225.5" width="100" height="50" as="geometry" />
        </mxCell>
        <mxCell id="HfG4GfTrvFpY40ubBp82-15" style="edgeStyle=orthogonalEdgeStyle;rounded=0;orthogonalLoop=1;jettySize=auto;html=1;exitX=1;exitY=0.5;exitDx=0;exitDy=0;entryX=0;entryY=0.5;entryDx=0;entryDy=0;entryPerimeter=0;fontSize=11;" parent="HfG4GfTrvFpY40ubBp82-0" source="HfG4GfTrvFpY40ubBp82-16" target="HfG4GfTrvFpY40ubBp82-3" edge="1">
          <mxGeometry relative="1" as="geometry" />
        </mxCell>
        <mxCell id="HfG4GfTrvFpY40ubBp82-16" value="Entity Product&lt;br&gt;with new&lt;br&gt;&amp;nbsp;attribute&amp;nbsp;" style="shape=parallelogram;perimeter=parallelogramPerimeter;whiteSpace=wrap;html=1;dashed=0;fontSize=11;align=center;" parent="HfG4GfTrvFpY40ubBp82-0" vertex="1">
          <mxGeometry x="482" y="164.25" width="100" height="50" as="geometry" />
        </mxCell>
        <mxCell id="HfG4GfTrvFpY40ubBp82-17" value="&lt;font style=&quot;font-size: 12px&quot;&gt;false&lt;/font&gt;" style="text;html=1;align=center;verticalAlign=middle;resizable=0;points=[];autosize=1;fontSize=20;" parent="HfG4GfTrvFpY40ubBp82-0" vertex="1">
          <mxGeometry x="252" y="106.75" width="40" height="30" as="geometry" />
        </mxCell>
        <mxCell id="C_gTXAS31QzOM1O6qctz-20" value="Simple Interaction &amp;nbsp;- Products API Process - FindByBarcode" style="fontStyle=0;verticalAlign=top;align=center;spacingTop=-2;fillColor=none;rounded=0;whiteSpace=wrap;html=1;strokeColor=#FF0000;strokeWidth=2;dashed=1;container=1;collapsible=0;expand=0;recursiveResize=0;fontSize=20;" parent="5uC7GMBCHUU2KOciokQW-1" vertex="1">
          <mxGeometry x="8" y="1170" width="1062" height="620" as="geometry" />
        </mxCell>
        <mxCell id="C_gTXAS31QzOM1O6qctz-21" value="" style="html=1;dashed=0;whitespace=wrap;shape=mxgraph.dfd.start" parent="C_gTXAS31QzOM1O6qctz-20" vertex="1">
          <mxGeometry x="77" y="122" width="80" height="30" as="geometry" />
        </mxCell>
        <mxCell id="C_gTXAS31QzOM1O6qctz-22" style="edgeStyle=orthogonalEdgeStyle;rounded=0;orthogonalLoop=1;jettySize=auto;html=1;exitX=0.5;exitY=0.5;exitDx=0;exitDy=15;exitPerimeter=0;entryX=0.5;entryY=0;entryDx=0;entryDy=0;" parent="C_gTXAS31QzOM1O6qctz-20" source="C_gTXAS31QzOM1O6qctz-21" target="C_gTXAS31QzOM1O6qctz-24" edge="1">
          <mxGeometry relative="1" as="geometry">
            <mxPoint x="117" y="182" as="targetPoint" />
          </mxGeometry>
        </mxCell>
        <mxCell id="C_gTXAS31QzOM1O6qctz-23" style="edgeStyle=orthogonalEdgeStyle;rounded=0;orthogonalLoop=1;jettySize=auto;html=1;exitX=1;exitY=0.5;exitDx=0;exitDy=0;entryX=0;entryY=0.5;entryDx=0;entryDy=0;fontSize=11;" parent="C_gTXAS31QzOM1O6qctz-20" source="C_gTXAS31QzOM1O6qctz-24" target="C_gTXAS31QzOM1O6qctz-31" edge="1">
          <mxGeometry relative="1" as="geometry" />
        </mxCell>
        <mxCell id="C_gTXAS31QzOM1O6qctz-24" value="API receives &lt;br&gt;EAN" style="html=1;dashed=0;whitespace=wrap;" parent="C_gTXAS31QzOM1O6qctz-20" vertex="1">
          <mxGeometry x="72" y="182" width="90" height="50" as="geometry" />
        </mxCell>
        <mxCell id="C_gTXAS31QzOM1O6qctz-25" style="edgeStyle=orthogonalEdgeStyle;rounded=0;orthogonalLoop=1;jettySize=auto;html=1;exitX=1;exitY=0.5;exitDx=0;exitDy=0;entryX=0;entryY=0.75;entryDx=0;entryDy=0;fontSize=11;" parent="C_gTXAS31QzOM1O6qctz-20" source="C_gTXAS31QzOM1O6qctz-26" edge="1">
          <mxGeometry relative="1" as="geometry">
            <mxPoint x="489" y="107" as="targetPoint" />
          </mxGeometry>
        </mxCell>
        <mxCell id="C_gTXAS31QzOM1O6qctz-26" value="&lt;span style=&quot;font-size: 11px&quot;&gt;&amp;nbsp;EAN first digit &lt;br style=&quot;font-size: 11px&quot;&gt;equals 2&lt;/span&gt;" style="shape=rhombus;html=1;dashed=0;whitespace=wrap;perimeter=rhombusPerimeter;fontSize=11;horizontal=1;verticalAlign=middle;spacing=0;" parent="C_gTXAS31QzOM1O6qctz-20" vertex="1">
          <mxGeometry x="349" y="69.5" width="90" height="75" as="geometry" />
        </mxCell>
        <mxCell id="C_gTXAS31QzOM1O6qctz-27" style="edgeStyle=orthogonalEdgeStyle;rounded=0;orthogonalLoop=1;jettySize=auto;html=1;exitX=1;exitY=0.5;exitDx=0;exitDy=0;fontSize=11;" parent="C_gTXAS31QzOM1O6qctz-20" source="C_gTXAS31QzOM1O6qctz-29" target="C_gTXAS31QzOM1O6qctz-57" edge="1">
          <mxGeometry relative="1" as="geometry" />
        </mxCell>
        <mxCell id="C_gTXAS31QzOM1O6qctz-28" style="edgeStyle=orthogonalEdgeStyle;rounded=0;orthogonalLoop=1;jettySize=auto;html=1;exitX=0.5;exitY=1;exitDx=0;exitDy=0;fontSize=11;" parent="C_gTXAS31QzOM1O6qctz-20" source="C_gTXAS31QzOM1O6qctz-29" target="C_gTXAS31QzOM1O6qctz-41" edge="1">
          <mxGeometry relative="1" as="geometry" />
        </mxCell>
        <mxCell id="C_gTXAS31QzOM1O6qctz-29" value=" EAN &#xa;length is &#xa;equals m&#xa;" style="shape=rhombus;dashed=0;whitespace=wrap;perimeter=rhombusPerimeter;fontSize=11;horizontal=1;verticalAlign=middle;spacing=0;align=center;" parent="C_gTXAS31QzOM1O6qctz-20" vertex="1">
          <mxGeometry x="637" y="262.75" width="90" height="75" as="geometry" />
        </mxCell>
        <mxCell id="C_gTXAS31QzOM1O6qctz-30" style="edgeStyle=orthogonalEdgeStyle;rounded=0;orthogonalLoop=1;jettySize=auto;html=1;exitX=0.5;exitY=1;exitDx=0;exitDy=0;entryX=0.5;entryY=0;entryDx=0;entryDy=0;fontSize=11;" parent="C_gTXAS31QzOM1O6qctz-20" source="C_gTXAS31QzOM1O6qctz-31" target="C_gTXAS31QzOM1O6qctz-34" edge="1">
          <mxGeometry relative="1" as="geometry" />
        </mxCell>
        <mxCell id="C_gTXAS31QzOM1O6qctz-31" value="Search on DB" style="shape=manualInput;whiteSpace=wrap;html=1;dashed=0;size=15;fontSize=11;align=center;" parent="C_gTXAS31QzOM1O6qctz-20" vertex="1">
          <mxGeometry x="189" y="181.75" width="100" height="50" as="geometry" />
        </mxCell>
        <mxCell id="C_gTXAS31QzOM1O6qctz-32" style="edgeStyle=orthogonalEdgeStyle;rounded=0;orthogonalLoop=1;jettySize=auto;html=1;exitX=1;exitY=0.5;exitDx=0;exitDy=0;entryX=0.5;entryY=1;entryDx=0;entryDy=0;fontSize=11;" parent="C_gTXAS31QzOM1O6qctz-20" source="C_gTXAS31QzOM1O6qctz-34" target="C_gTXAS31QzOM1O6qctz-26" edge="1">
          <mxGeometry relative="1" as="geometry" />
        </mxCell>
        <mxCell id="C_gTXAS31QzOM1O6qctz-33" style="edgeStyle=orthogonalEdgeStyle;rounded=0;orthogonalLoop=1;jettySize=auto;html=1;exitX=0.5;exitY=1;exitDx=0;exitDy=0;entryX=0;entryY=0.5;entryDx=0;entryDy=0;fontSize=11;" parent="C_gTXAS31QzOM1O6qctz-20" source="C_gTXAS31QzOM1O6qctz-34" target="C_gTXAS31QzOM1O6qctz-41" edge="1">
          <mxGeometry relative="1" as="geometry">
            <Array as="points">
              <mxPoint x="244" y="405" />
            </Array>
          </mxGeometry>
        </mxCell>
        <mxCell id="C_gTXAS31QzOM1O6qctz-34" value="&lt;span style=&quot;font-size: 11px&quot;&gt;&amp;nbsp;EAN matches&lt;/span&gt;" style="shape=rhombus;html=1;dashed=0;whitespace=wrap;perimeter=rhombusPerimeter;fontSize=11;horizontal=1;verticalAlign=middle;spacing=0;" parent="C_gTXAS31QzOM1O6qctz-20" vertex="1">
          <mxGeometry x="199" y="262.75" width="90" height="75" as="geometry" />
        </mxCell>
        <mxCell id="C_gTXAS31QzOM1O6qctz-35" value="&lt;font style=&quot;font-size: 12px&quot;&gt;No&lt;/font&gt;" style="text;html=1;align=center;verticalAlign=middle;resizable=0;points=[];autosize=1;fontSize=20;" parent="C_gTXAS31QzOM1O6qctz-20" vertex="1">
          <mxGeometry x="286" y="272.75" width="30" height="30" as="geometry" />
        </mxCell>
        <mxCell id="C_gTXAS31QzOM1O6qctz-36" style="edgeStyle=orthogonalEdgeStyle;rounded=0;orthogonalLoop=1;jettySize=auto;html=1;exitX=1;exitY=0.5;exitDx=0;exitDy=0;entryX=0;entryY=0.5;entryDx=0;entryDy=0;fontSize=11;" parent="C_gTXAS31QzOM1O6qctz-20" source="C_gTXAS31QzOM1O6qctz-57" target="C_gTXAS31QzOM1O6qctz-39" edge="1">
          <mxGeometry relative="1" as="geometry" />
        </mxCell>
        <mxCell id="C_gTXAS31QzOM1O6qctz-37" style="edgeStyle=orthogonalEdgeStyle;rounded=0;orthogonalLoop=1;jettySize=auto;html=1;exitX=0.5;exitY=0;exitDx=0;exitDy=0;entryX=0.5;entryY=1;entryDx=0;entryDy=0;fontSize=11;" parent="C_gTXAS31QzOM1O6qctz-20" source="C_gTXAS31QzOM1O6qctz-39" target="C_gTXAS31QzOM1O6qctz-59" edge="1">
          <mxGeometry relative="1" as="geometry" />
        </mxCell>
        <mxCell id="C_gTXAS31QzOM1O6qctz-65" style="edgeStyle=orthogonalEdgeStyle;rounded=0;orthogonalLoop=1;jettySize=auto;html=1;exitX=0.5;exitY=1;exitDx=0;exitDy=0;entryX=1;entryY=0.75;entryDx=0;entryDy=0;fontSize=11;" parent="C_gTXAS31QzOM1O6qctz-20" source="C_gTXAS31QzOM1O6qctz-39" target="C_gTXAS31QzOM1O6qctz-41" edge="1">
          <mxGeometry relative="1" as="geometry">
            <Array as="points">
              <mxPoint x="939" y="414" />
            </Array>
          </mxGeometry>
        </mxCell>
        <mxCell id="C_gTXAS31QzOM1O6qctz-39" value=" EAN &#xa;expiraded" style="shape=rhombus;dashed=0;whitespace=wrap;perimeter=rhombusPerimeter;fontSize=11;horizontal=1;verticalAlign=middle;spacing=0;align=center;" parent="C_gTXAS31QzOM1O6qctz-20" vertex="1">
          <mxGeometry x="894" y="262.75" width="90" height="75" as="geometry" />
        </mxCell>
        <mxCell id="C_gTXAS31QzOM1O6qctz-40" style="edgeStyle=orthogonalEdgeStyle;rounded=0;orthogonalLoop=1;jettySize=auto;html=1;exitX=0.5;exitY=1;exitDx=0;exitDy=0;entryX=0.5;entryY=0;entryDx=0;entryDy=0;fontSize=11;" parent="C_gTXAS31QzOM1O6qctz-20" source="C_gTXAS31QzOM1O6qctz-41" target="C_gTXAS31QzOM1O6qctz-53" edge="1">
          <mxGeometry relative="1" as="geometry">
            <Array as="points">
              <mxPoint x="682" y="450" />
              <mxPoint x="244" y="450" />
            </Array>
          </mxGeometry>
        </mxCell>
        <mxCell id="C_gTXAS31QzOM1O6qctz-41" value="Create Product Object" style="shape=parallelogram;perimeter=parallelogramPerimeter;whiteSpace=wrap;html=1;dashed=0;fontSize=11;align=center;" parent="C_gTXAS31QzOM1O6qctz-20" vertex="1">
          <mxGeometry x="632" y="380" width="100" height="50" as="geometry" />
        </mxCell>
        <mxCell id="C_gTXAS31QzOM1O6qctz-42" style="edgeStyle=orthogonalEdgeStyle;rounded=0;orthogonalLoop=1;jettySize=auto;html=1;exitX=1;exitY=0.5;exitDx=0;exitDy=0;entryX=0;entryY=0.5;entryDx=0;entryDy=0;fontSize=11;" parent="C_gTXAS31QzOM1O6qctz-20" source="C_gTXAS31QzOM1O6qctz-43" target="C_gTXAS31QzOM1O6qctz-46" edge="1">
          <mxGeometry relative="1" as="geometry">
            <Array as="points">
              <mxPoint x="612" y="300" />
              <mxPoint x="612" y="90" />
            </Array>
          </mxGeometry>
        </mxCell>
        <mxCell id="C_gTXAS31QzOM1O6qctz-43" value="Search on &lt;br&gt;DB" style="shape=manualInput;whiteSpace=wrap;html=1;dashed=0;size=15;fontSize=11;align=center;" parent="C_gTXAS31QzOM1O6qctz-20" vertex="1">
          <mxGeometry x="489" y="271.75" width="100" height="50" as="geometry" />
        </mxCell>
        <mxCell id="C_gTXAS31QzOM1O6qctz-44" style="edgeStyle=orthogonalEdgeStyle;rounded=0;orthogonalLoop=1;jettySize=auto;html=1;exitX=0.5;exitY=1;exitDx=0;exitDy=0;fontSize=11;" parent="C_gTXAS31QzOM1O6qctz-20" source="C_gTXAS31QzOM1O6qctz-46" target="C_gTXAS31QzOM1O6qctz-29" edge="1">
          <mxGeometry relative="1" as="geometry" />
        </mxCell>
        <mxCell id="C_gTXAS31QzOM1O6qctz-45" style="edgeStyle=orthogonalEdgeStyle;rounded=0;orthogonalLoop=1;jettySize=auto;html=1;exitX=1;exitY=0.5;exitDx=0;exitDy=0;entryX=0;entryY=0.5;entryDx=0;entryDy=0;fontSize=11;" parent="C_gTXAS31QzOM1O6qctz-20" source="C_gTXAS31QzOM1O6qctz-46" target="C_gTXAS31QzOM1O6qctz-59" edge="1">
          <mxGeometry relative="1" as="geometry" />
        </mxCell>
        <mxCell id="C_gTXAS31QzOM1O6qctz-46" value="&lt;span style=&quot;font-size: 11px&quot;&gt;&amp;nbsp;EAN matches&lt;/span&gt;" style="shape=rhombus;html=1;dashed=0;whitespace=wrap;perimeter=rhombusPerimeter;fontSize=11;horizontal=1;verticalAlign=middle;spacing=0;" parent="C_gTXAS31QzOM1O6qctz-20" vertex="1">
          <mxGeometry x="637" y="52" width="90" height="75" as="geometry" />
        </mxCell>
        <mxCell id="C_gTXAS31QzOM1O6qctz-47" value="&lt;font style=&quot;font-size: 12px&quot;&gt;Yes&lt;/font&gt;" style="text;html=1;align=center;verticalAlign=middle;resizable=0;points=[];autosize=1;fontSize=20;" parent="C_gTXAS31QzOM1O6qctz-20" vertex="1">
          <mxGeometry x="239" y="337.75" width="40" height="30" as="geometry" />
        </mxCell>
        <mxCell id="C_gTXAS31QzOM1O6qctz-48" value="&lt;font style=&quot;font-size: 12px&quot;&gt;Yes&lt;/font&gt;" style="text;html=1;align=center;verticalAlign=middle;resizable=0;points=[];autosize=1;fontSize=20;" parent="C_gTXAS31QzOM1O6qctz-20" vertex="1">
          <mxGeometry x="439" y="79.5" width="40" height="30" as="geometry" />
        </mxCell>
        <mxCell id="C_gTXAS31QzOM1O6qctz-49" value="&lt;font style=&quot;font-size: 12px&quot;&gt;Yes&lt;/font&gt;" style="text;html=1;align=center;verticalAlign=middle;resizable=0;points=[];autosize=1;fontSize=20;" parent="C_gTXAS31QzOM1O6qctz-20" vertex="1">
          <mxGeometry x="674" y="122" width="40" height="30" as="geometry" />
        </mxCell>
        <mxCell id="C_gTXAS31QzOM1O6qctz-50" value="&lt;font style=&quot;font-size: 12px&quot;&gt;No&lt;/font&gt;" style="text;html=1;align=center;verticalAlign=middle;resizable=0;points=[];autosize=1;fontSize=20;" parent="C_gTXAS31QzOM1O6qctz-20" vertex="1">
          <mxGeometry x="727" y="60" width="30" height="30" as="geometry" />
        </mxCell>
        <mxCell id="C_gTXAS31QzOM1O6qctz-51" value="&lt;font style=&quot;font-size: 12px&quot;&gt;Yes&lt;/font&gt;" style="text;html=1;align=center;verticalAlign=middle;resizable=0;points=[];autosize=1;fontSize=20;" parent="C_gTXAS31QzOM1O6qctz-20" vertex="1">
          <mxGeometry x="932" y="241.75" width="40" height="30" as="geometry" />
        </mxCell>
        <mxCell id="C_gTXAS31QzOM1O6qctz-52" style="edgeStyle=orthogonalEdgeStyle;rounded=0;orthogonalLoop=1;jettySize=auto;html=1;exitX=1;exitY=0.5;exitDx=0;exitDy=0;entryX=0;entryY=0.25;entryDx=0;entryDy=0;fontSize=11;" parent="C_gTXAS31QzOM1O6qctz-20" source="C_gTXAS31QzOM1O6qctz-53" target="C_gTXAS31QzOM1O6qctz-56" edge="1">
          <mxGeometry relative="1" as="geometry" />
        </mxCell>
        <mxCell id="C_gTXAS31QzOM1O6qctz-53" value="&lt;br&gt;&lt;br&gt;&lt;br&gt;&lt;br&gt;Weight product(Rotine)&lt;br&gt;vm-products-api" style="shape=ellipse;html=1;dashed=0;whitespace=wrap;perimeter=ellipsePerimeter;fontSize=11;align=center;" parent="C_gTXAS31QzOM1O6qctz-20" vertex="1">
          <mxGeometry x="229" y="480" width="30" height="30" as="geometry" />
        </mxCell>
        <mxCell id="C_gTXAS31QzOM1O6qctz-54" value="" style="html=1;dashed=0;whitespace=wrap;shape=mxgraph.dfd.start" parent="C_gTXAS31QzOM1O6qctz-20" vertex="1">
          <mxGeometry x="642" y="570" width="80" height="30" as="geometry" />
        </mxCell>
        <mxCell id="C_gTXAS31QzOM1O6qctz-55" style="edgeStyle=orthogonalEdgeStyle;rounded=0;orthogonalLoop=1;jettySize=auto;html=1;exitX=0.5;exitY=1;exitDx=0;exitDy=0;entryX=0.5;entryY=0.5;entryDx=0;entryDy=-15;entryPerimeter=0;fontSize=11;" parent="C_gTXAS31QzOM1O6qctz-20" source="C_gTXAS31QzOM1O6qctz-56" target="C_gTXAS31QzOM1O6qctz-54" edge="1">
          <mxGeometry relative="1" as="geometry" />
        </mxCell>
        <mxCell id="C_gTXAS31QzOM1O6qctz-56" value="Create &lt;br&gt;response to middlewate" style="shape=parallelogram;perimeter=parallelogramPerimeter;whiteSpace=wrap;html=1;dashed=0;fontSize=11;align=center;" parent="C_gTXAS31QzOM1O6qctz-20" vertex="1">
          <mxGeometry x="952" y="479" width="100" height="50" as="geometry" />
        </mxCell>
        <mxCell id="C_gTXAS31QzOM1O6qctz-57" value="&lt;br&gt;Read expiration date,&amp;nbsp;position z to w" style="shape=manualInput;whiteSpace=wrap;html=1;dashed=0;size=15;fontSize=11;align=center;" parent="C_gTXAS31QzOM1O6qctz-20" vertex="1">
          <mxGeometry x="767" y="275.25" width="100" height="50" as="geometry" />
        </mxCell>
        <mxCell id="C_gTXAS31QzOM1O6qctz-58" style="edgeStyle=orthogonalEdgeStyle;rounded=0;orthogonalLoop=1;jettySize=auto;html=1;exitX=1;exitY=0.5;exitDx=0;exitDy=0;entryX=0.5;entryY=0;entryDx=0;entryDy=0;fontSize=11;" parent="C_gTXAS31QzOM1O6qctz-20" source="C_gTXAS31QzOM1O6qctz-59" target="C_gTXAS31QzOM1O6qctz-56" edge="1">
          <mxGeometry relative="1" as="geometry" />
        </mxCell>
        <mxCell id="C_gTXAS31QzOM1O6qctz-59" value="Create error message" style="shape=parallelogram;perimeter=parallelogramPerimeter;whiteSpace=wrap;html=1;dashed=0;fontSize=11;align=center;" parent="C_gTXAS31QzOM1O6qctz-20" vertex="1">
          <mxGeometry x="772" y="65" width="100" height="50" as="geometry" />
        </mxCell>
        <mxCell id="C_gTXAS31QzOM1O6qctz-60" value="&lt;font style=&quot;font-size: 12px&quot;&gt;Yes&lt;/font&gt;" style="text;html=1;align=center;verticalAlign=middle;resizable=0;points=[];autosize=1;fontSize=20;" parent="C_gTXAS31QzOM1O6qctz-20" vertex="1">
          <mxGeometry x="722" y="272.75" width="40" height="30" as="geometry" />
        </mxCell>
        <mxCell id="C_gTXAS31QzOM1O6qctz-61" value="&lt;font style=&quot;font-size: 12px&quot;&gt;No&lt;/font&gt;" style="text;html=1;align=center;verticalAlign=middle;resizable=0;points=[];autosize=1;fontSize=20;" parent="C_gTXAS31QzOM1O6qctz-20" vertex="1">
          <mxGeometry x="677" y="330" width="30" height="30" as="geometry" />
        </mxCell>
        <mxCell id="C_gTXAS31QzOM1O6qctz-62" value="&lt;font style=&quot;font-size: 12px&quot;&gt;No&lt;/font&gt;" style="text;html=1;align=center;verticalAlign=middle;resizable=0;points=[];autosize=1;fontSize=20;" parent="C_gTXAS31QzOM1O6qctz-20" vertex="1">
          <mxGeometry x="936" y="330" width="30" height="30" as="geometry" />
        </mxCell>
        <mxCell id="C_gTXAS31QzOM1O6qctz-63" style="edgeStyle=orthogonalEdgeStyle;rounded=0;orthogonalLoop=1;jettySize=auto;html=1;exitX=0.5;exitY=1;exitDx=0;exitDy=0;fontSize=11;" parent="5uC7GMBCHUU2KOciokQW-1" source="C_gTXAS31QzOM1O6qctz-64" target="C_gTXAS31QzOM1O6qctz-43" edge="1">
          <mxGeometry relative="1" as="geometry" />
        </mxCell>
        <mxCell id="C_gTXAS31QzOM1O6qctz-64" value="&lt;br&gt;Read internal EAN&lt;br&gt;position, x to y" style="shape=manualInput;whiteSpace=wrap;html=1;dashed=0;size=15;fontSize=11;align=center;" parent="5uC7GMBCHUU2KOciokQW-1" vertex="1">
          <mxGeometry x="497" y="1239.5" width="100" height="50" as="geometry" />
        </mxCell>
        <mxCell id="dissCDc5WzyhIE8pMM99-0" value="Simple Visual Mix Jade Simple Query Interaction" style="text;html=1;resizable=0;points=[];autosize=1;align=left;verticalAlign=top;spacingTop=-4;fontSize=16" parent="5uC7GMBCHUU2KOciokQW-1" vertex="1">
          <mxGeometry x="12" y="115.5" width="360" height="20" as="geometry" />
        </mxCell>
      </root>
    </mxGraphModel>
  </diagram>
  <diagram name="Simple Commit Interaction" id="DF2k5BVZZJ7Fm-ianyhk">
    <mxGraphModel dx="946" dy="662" grid="1" gridSize="10" guides="1" tooltips="1" connect="1" arrows="1" fold="1" page="1" pageScale="1" pageWidth="583" pageHeight="413" math="0" shadow="0">
      <root>
        <mxCell id="A6Q7QGBYelO12TpGn7Jf-0" />
        <mxCell id="A6Q7QGBYelO12TpGn7Jf-1" parent="A6Q7QGBYelO12TpGn7Jf-0" />
        <mxCell id="A6Q7QGBYelO12TpGn7Jf-2" value="" style="group" parent="A6Q7QGBYelO12TpGn7Jf-1" vertex="1" connectable="0">
          <mxGeometry x="8" y="65.5" width="1060" height="85" as="geometry" />
        </mxCell>
        <mxCell id="A6Q7QGBYelO12TpGn7Jf-3" value="Visual Mix - vm-jade-api" style="text;html=1;resizable=0;points=[];autosize=1;align=left;verticalAlign=top;spacingTop=-4;fontSize=30;fontStyle=1" parent="A6Q7QGBYelO12TpGn7Jf-2" vertex="1">
          <mxGeometry x="4" width="360" height="40" as="geometry" />
        </mxCell>
        <mxCell id="A6Q7QGBYelO12TpGn7Jf-5" value="" style="line;strokeWidth=2;html=1;fontSize=14;" parent="A6Q7QGBYelO12TpGn7Jf-2" vertex="1">
          <mxGeometry y="75" width="1060" height="10" as="geometry" />
        </mxCell>
        <mxCell id="A6Q7QGBYelO12TpGn7Jf-27" value="Simple Interaction &amp;nbsp;- Jade API Process - Commit" style="fontStyle=0;verticalAlign=top;align=center;spacingTop=-2;fillColor=none;rounded=0;whiteSpace=wrap;html=1;strokeColor=#FF0000;strokeWidth=2;dashed=1;container=1;collapsible=0;expand=0;recursiveResize=0;fontSize=20;" parent="A6Q7QGBYelO12TpGn7Jf-1" vertex="1">
          <mxGeometry x="10" y="250" width="870" height="330" as="geometry" />
        </mxCell>
        <mxCell id="A6Q7QGBYelO12TpGn7Jf-28" value="" style="html=1;dashed=0;whitespace=wrap;shape=mxgraph.dfd.start" parent="A6Q7QGBYelO12TpGn7Jf-27" vertex="1">
          <mxGeometry x="72" y="105.75" width="80" height="30" as="geometry" />
        </mxCell>
        <mxCell id="A6Q7QGBYelO12TpGn7Jf-29" style="edgeStyle=orthogonalEdgeStyle;rounded=0;orthogonalLoop=1;jettySize=auto;html=1;exitX=0.5;exitY=0.5;exitDx=0;exitDy=15;exitPerimeter=0;entryX=0.5;entryY=0;entryDx=0;entryDy=0;" parent="A6Q7QGBYelO12TpGn7Jf-27" source="A6Q7QGBYelO12TpGn7Jf-28" target="A6Q7QGBYelO12TpGn7Jf-34" edge="1">
          <mxGeometry relative="1" as="geometry">
            <mxPoint x="112" y="165.75" as="targetPoint" />
          </mxGeometry>
        </mxCell>
        <mxCell id="A6Q7QGBYelO12TpGn7Jf-30" value="" style="html=1;dashed=0;whitespace=wrap;shape=mxgraph.dfd.start" parent="A6Q7QGBYelO12TpGn7Jf-27" vertex="1">
          <mxGeometry x="740" y="200" width="80" height="30" as="geometry" />
        </mxCell>
        <mxCell id="A6Q7QGBYelO12TpGn7Jf-31" style="edgeStyle=orthogonalEdgeStyle;rounded=0;orthogonalLoop=1;jettySize=auto;html=1;exitX=0.5;exitY=1;exitDx=0;exitDy=0;entryX=0.5;entryY=0.5;entryDx=0;entryDy=-15;entryPerimeter=0;fontSize=11;" parent="A6Q7QGBYelO12TpGn7Jf-27" source="A6Q7QGBYelO12TpGn7Jf-32" target="A6Q7QGBYelO12TpGn7Jf-30" edge="1">
          <mxGeometry relative="1" as="geometry" />
        </mxCell>
        <mxCell id="A6Q7QGBYelO12TpGn7Jf-32" value="Create &lt;br&gt;response to middlewate" style="shape=parallelogram;perimeter=parallelogramPerimeter;whiteSpace=wrap;html=1;dashed=0;fontSize=11;align=center;" parent="A6Q7QGBYelO12TpGn7Jf-27" vertex="1">
          <mxGeometry x="730" y="103.25" width="100" height="50" as="geometry" />
        </mxCell>
        <mxCell id="A6Q7QGBYelO12TpGn7Jf-33" style="edgeStyle=orthogonalEdgeStyle;rounded=0;orthogonalLoop=1;jettySize=auto;html=1;exitX=1;exitY=0.5;exitDx=0;exitDy=0;entryX=0;entryY=0.5;entryDx=0;entryDy=0;fontSize=11;" parent="A6Q7QGBYelO12TpGn7Jf-27" source="A6Q7QGBYelO12TpGn7Jf-34" target="A6Q7QGBYelO12TpGn7Jf-37" edge="1">
          <mxGeometry relative="1" as="geometry" />
        </mxCell>
        <mxCell id="A6Q7QGBYelO12TpGn7Jf-34" value="&lt;br&gt;&lt;br&gt;&lt;br&gt;&lt;br&gt;Query Jade (Rotine)" style="shape=ellipse;html=1;dashed=0;whitespace=wrap;perimeter=ellipsePerimeter;fontSize=11;align=center;" parent="A6Q7QGBYelO12TpGn7Jf-27" vertex="1">
          <mxGeometry x="97" y="169.5" width="30" height="30" as="geometry" />
        </mxCell>
        <mxCell id="qidxXdITyqdC-RcgXKgX-2" style="edgeStyle=orthogonalEdgeStyle;rounded=0;orthogonalLoop=1;jettySize=auto;html=1;exitX=1;exitY=0.5;exitDx=0;exitDy=0;entryX=0;entryY=0.5;entryDx=0;entryDy=0;fontSize=11;" parent="A6Q7QGBYelO12TpGn7Jf-27" source="A6Q7QGBYelO12TpGn7Jf-37" target="qidxXdITyqdC-RcgXKgX-1" edge="1">
          <mxGeometry relative="1" as="geometry" />
        </mxCell>
        <mxCell id="G3WLuJugdALK-rbfUG9S-1" style="edgeStyle=orthogonalEdgeStyle;rounded=0;orthogonalLoop=1;jettySize=auto;html=1;exitX=0.5;exitY=0;exitDx=0;exitDy=0;entryX=0;entryY=0.5;entryDx=0;entryDy=0;fontSize=11;" parent="A6Q7QGBYelO12TpGn7Jf-27" source="A6Q7QGBYelO12TpGn7Jf-37" target="G3WLuJugdALK-rbfUG9S-0" edge="1">
          <mxGeometry relative="1" as="geometry">
            <Array as="points">
              <mxPoint x="239" y="55" />
            </Array>
          </mxGeometry>
        </mxCell>
        <mxCell id="A6Q7QGBYelO12TpGn7Jf-37" value="&lt;span style=&quot;font-size: 11px&quot;&gt;Response&lt;br&gt;ok&lt;br&gt;&lt;/span&gt;" style="shape=rhombus;html=1;dashed=0;whitespace=wrap;perimeter=rhombusPerimeter;fontSize=11;horizontal=1;verticalAlign=middle;spacing=0;" parent="A6Q7QGBYelO12TpGn7Jf-27" vertex="1">
          <mxGeometry x="194" y="147" width="90" height="75" as="geometry" />
        </mxCell>
        <mxCell id="G3WLuJugdALK-rbfUG9S-23" style="edgeStyle=orthogonalEdgeStyle;rounded=0;orthogonalLoop=1;jettySize=auto;html=1;exitX=0.5;exitY=0;exitDx=0;exitDy=0;fontSize=11;" parent="A6Q7QGBYelO12TpGn7Jf-27" source="A6Q7QGBYelO12TpGn7Jf-39" target="A6Q7QGBYelO12TpGn7Jf-42" edge="1">
          <mxGeometry relative="1" as="geometry" />
        </mxCell>
        <mxCell id="A6Q7QGBYelO12TpGn7Jf-39" value="Call endpoint &lt;br&gt;addProduct from&amp;nbsp;&lt;br&gt;vm-presale-api" style="html=1;dashed=0;whitespace=wrap;fontSize=11;align=center;" parent="A6Q7QGBYelO12TpGn7Jf-27" vertex="1">
          <mxGeometry x="600" y="180" width="100" height="50" as="geometry" />
        </mxCell>
        <mxCell id="G3WLuJugdALK-rbfUG9S-19" style="edgeStyle=orthogonalEdgeStyle;rounded=0;orthogonalLoop=1;jettySize=auto;html=1;exitX=1;exitY=0.5;exitDx=0;exitDy=0;entryX=0;entryY=0.5;entryDx=0;entryDy=0;fontSize=11;" parent="A6Q7QGBYelO12TpGn7Jf-27" source="A6Q7QGBYelO12TpGn7Jf-42" target="A6Q7QGBYelO12TpGn7Jf-32" edge="1">
          <mxGeometry relative="1" as="geometry" />
        </mxCell>
        <mxCell id="G3WLuJugdALK-rbfUG9S-24" style="edgeStyle=orthogonalEdgeStyle;rounded=0;orthogonalLoop=1;jettySize=auto;html=1;exitX=0;exitY=0.5;exitDx=0;exitDy=0;entryX=1;entryY=1;entryDx=0;entryDy=0;fontSize=11;" parent="A6Q7QGBYelO12TpGn7Jf-27" source="A6Q7QGBYelO12TpGn7Jf-42" target="G3WLuJugdALK-rbfUG9S-0" edge="1">
          <mxGeometry relative="1" as="geometry">
            <Array as="points">
              <mxPoint x="605" y="72" />
            </Array>
          </mxGeometry>
        </mxCell>
        <mxCell id="A6Q7QGBYelO12TpGn7Jf-42" value="&lt;span style=&quot;font-size: 11px&quot;&gt;Added&lt;br&gt;product&lt;br&gt;&lt;/span&gt;" style="shape=rhombus;html=1;dashed=0;whitespace=wrap;perimeter=rhombusPerimeter;fontSize=11;horizontal=1;verticalAlign=middle;spacing=0;" parent="A6Q7QGBYelO12TpGn7Jf-27" vertex="1">
          <mxGeometry x="605" y="90.75" width="90" height="75" as="geometry" />
        </mxCell>
        <mxCell id="pEPJPdlskhQy7B4DF8n9-0" style="edgeStyle=orthogonalEdgeStyle;rounded=0;orthogonalLoop=1;jettySize=auto;html=1;exitX=1;exitY=0.5;exitDx=0;exitDy=0;fontSize=11;" parent="A6Q7QGBYelO12TpGn7Jf-27" source="qidxXdITyqdC-RcgXKgX-1" target="HLKd6hQEaHmO0GJ-LDNZ-8" edge="1">
          <mxGeometry relative="1" as="geometry" />
        </mxCell>
        <mxCell id="G3WLuJugdALK-rbfUG9S-6" style="edgeStyle=orthogonalEdgeStyle;rounded=0;orthogonalLoop=1;jettySize=auto;html=1;exitX=0.5;exitY=0;exitDx=0;exitDy=0;entryX=0.5;entryY=1;entryDx=0;entryDy=0;fontSize=11;" parent="A6Q7QGBYelO12TpGn7Jf-27" source="qidxXdITyqdC-RcgXKgX-1" target="G3WLuJugdALK-rbfUG9S-4" edge="1">
          <mxGeometry relative="1" as="geometry" />
        </mxCell>
        <mxCell id="qidxXdITyqdC-RcgXKgX-1" value="&lt;font style=&quot;font-size: 10px&quot;&gt;&lt;b&gt;quantity&lt;/b&gt; is &lt;br&gt;filled&amp;nbsp;&lt;/font&gt;&lt;span style=&quot;color: rgba(0 , 0 , 0 , 0.87) ; font-family: &amp;#34;arial&amp;#34; , sans-serif ; text-align: left ; background-color: rgb(255 , 255 , 255) ; font-size: 10px&quot;&gt;&lt;br&gt;&lt;/span&gt;" style="shape=rhombus;html=1;dashed=0;whitespace=wrap;perimeter=rhombusPerimeter;fontSize=11;horizontal=1;verticalAlign=middle;spacing=0;" parent="A6Q7QGBYelO12TpGn7Jf-27" vertex="1">
          <mxGeometry x="330" y="222" width="90" height="75" as="geometry" />
        </mxCell>
        <mxCell id="HLKd6hQEaHmO0GJ-LDNZ-3" value="&lt;font style=&quot;font-size: 12px&quot;&gt;No&lt;/font&gt;" style="text;html=1;align=center;verticalAlign=middle;resizable=0;points=[];autosize=1;fontSize=20;" parent="A6Q7QGBYelO12TpGn7Jf-27" vertex="1">
          <mxGeometry x="370" y="200" width="30" height="30" as="geometry" />
        </mxCell>
        <mxCell id="G3WLuJugdALK-rbfUG9S-14" style="edgeStyle=orthogonalEdgeStyle;rounded=0;orthogonalLoop=1;jettySize=auto;html=1;exitX=1;exitY=0.5;exitDx=0;exitDy=0;entryX=0;entryY=0.75;entryDx=0;entryDy=0;fontSize=11;" parent="A6Q7QGBYelO12TpGn7Jf-27" source="HLKd6hQEaHmO0GJ-LDNZ-8" target="A6Q7QGBYelO12TpGn7Jf-39" edge="1">
          <mxGeometry relative="1" as="geometry" />
        </mxCell>
        <mxCell id="UwZH5AbYp1Oz3lNexHZ8-0" style="edgeStyle=orthogonalEdgeStyle;rounded=0;orthogonalLoop=1;jettySize=auto;html=1;exitX=1;exitY=1;exitDx=0;exitDy=0;entryX=1;entryY=0.25;entryDx=0;entryDy=0;fontSize=11;" parent="A6Q7QGBYelO12TpGn7Jf-27" source="HLKd6hQEaHmO0GJ-LDNZ-8" target="G3WLuJugdALK-rbfUG9S-0" edge="1">
          <mxGeometry relative="1" as="geometry">
            <Array as="points">
              <mxPoint x="850" y="278" />
              <mxPoint x="850" y="44" />
            </Array>
          </mxGeometry>
        </mxCell>
        <mxCell id="HLKd6hQEaHmO0GJ-LDNZ-8" value="&lt;font style=&quot;font-size: 10px&quot;&gt;obligatory&amp;nbsp;&lt;br&gt;&lt;span style=&quot;color: rgba(0 , 0 , 0 , 0.87) ; font-family: &amp;#34;arial&amp;#34; , sans-serif ; font-size: 11px ; text-align: left ; background-color: rgb(255 , 255 , 255)&quot;&gt;measure&lt;/span&gt;&amp;nbsp;&lt;br&gt;&lt;/font&gt;&lt;span style=&quot;color: rgba(0 , 0 , 0 , 0.87) ; font-family: &amp;#34;arial&amp;#34; , sans-serif ; text-align: left ; background-color: rgb(255 , 255 , 255) ; font-size: 10px&quot;&gt;false&lt;br&gt;&lt;/span&gt;" style="shape=rhombus;html=1;dashed=0;whitespace=wrap;perimeter=rhombusPerimeter;fontSize=11;horizontal=1;verticalAlign=middle;spacing=0;" parent="A6Q7QGBYelO12TpGn7Jf-27" vertex="1">
          <mxGeometry x="443" y="222" width="90" height="75" as="geometry" />
        </mxCell>
        <mxCell id="pEPJPdlskhQy7B4DF8n9-2" value="&lt;font style=&quot;font-size: 12px&quot;&gt;Yes&lt;/font&gt;" style="text;html=1;align=center;verticalAlign=middle;resizable=0;points=[];autosize=1;fontSize=20;" parent="A6Q7QGBYelO12TpGn7Jf-27" vertex="1">
          <mxGeometry x="410" y="135.75" width="40" height="30" as="geometry" />
        </mxCell>
        <mxCell id="pEPJPdlskhQy7B4DF8n9-9" value="&lt;font style=&quot;font-size: 12px&quot;&gt;Yes&lt;/font&gt;" style="text;html=1;align=center;verticalAlign=middle;resizable=0;points=[];autosize=1;fontSize=20;" parent="A6Q7QGBYelO12TpGn7Jf-27" vertex="1">
          <mxGeometry x="410" y="230" width="40" height="30" as="geometry" />
        </mxCell>
        <mxCell id="G3WLuJugdALK-rbfUG9S-27" style="edgeStyle=orthogonalEdgeStyle;rounded=0;orthogonalLoop=1;jettySize=auto;html=1;exitX=1;exitY=0.5;exitDx=0;exitDy=0;fontSize=11;" parent="A6Q7QGBYelO12TpGn7Jf-27" source="G3WLuJugdALK-rbfUG9S-0" target="A6Q7QGBYelO12TpGn7Jf-32" edge="1">
          <mxGeometry relative="1" as="geometry" />
        </mxCell>
        <mxCell id="G3WLuJugdALK-rbfUG9S-0" value="Create error message" style="shape=parallelogram;perimeter=parallelogramPerimeter;whiteSpace=wrap;html=1;dashed=0;fontSize=11;align=center;" parent="A6Q7QGBYelO12TpGn7Jf-27" vertex="1">
          <mxGeometry x="438" y="30" width="100" height="50" as="geometry" />
        </mxCell>
        <mxCell id="G3WLuJugdALK-rbfUG9S-2" value="&lt;font style=&quot;font-size: 12px&quot;&gt;No&lt;/font&gt;" style="text;html=1;align=center;verticalAlign=middle;resizable=0;points=[];autosize=1;fontSize=20;" parent="A6Q7QGBYelO12TpGn7Jf-27" vertex="1">
          <mxGeometry x="210" y="122.5" width="30" height="30" as="geometry" />
        </mxCell>
        <mxCell id="A6Q7QGBYelO12TpGn7Jf-43" value="&lt;font style=&quot;font-size: 12px&quot;&gt;Yes&lt;/font&gt;" style="text;html=1;align=center;verticalAlign=middle;resizable=0;points=[];autosize=1;fontSize=20;" parent="A6Q7QGBYelO12TpGn7Jf-27" vertex="1">
          <mxGeometry x="273" y="161" width="40" height="30" as="geometry" />
        </mxCell>
        <mxCell id="G3WLuJugdALK-rbfUG9S-8" style="edgeStyle=orthogonalEdgeStyle;rounded=0;orthogonalLoop=1;jettySize=auto;html=1;exitX=0.5;exitY=0;exitDx=0;exitDy=0;entryX=0;entryY=0.75;entryDx=0;entryDy=0;fontSize=11;" parent="A6Q7QGBYelO12TpGn7Jf-27" source="G3WLuJugdALK-rbfUG9S-4" target="G3WLuJugdALK-rbfUG9S-0" edge="1">
          <mxGeometry relative="1" as="geometry">
            <Array as="points">
              <mxPoint x="375" y="66" />
            </Array>
          </mxGeometry>
        </mxCell>
        <mxCell id="G3WLuJugdALK-rbfUG9S-10" style="edgeStyle=orthogonalEdgeStyle;rounded=0;orthogonalLoop=1;jettySize=auto;html=1;exitX=1;exitY=0.5;exitDx=0;exitDy=0;entryX=0.111;entryY=0.593;entryDx=0;entryDy=0;entryPerimeter=0;fontSize=11;" parent="A6Q7QGBYelO12TpGn7Jf-27" source="G3WLuJugdALK-rbfUG9S-4" target="G3WLuJugdALK-rbfUG9S-5" edge="1">
          <mxGeometry relative="1" as="geometry" />
        </mxCell>
        <mxCell id="G3WLuJugdALK-rbfUG9S-4" value="&lt;font style=&quot;font-size: 10px&quot;&gt;&lt;b&gt;weight&lt;/b&gt;&amp;nbsp;is &lt;br&gt;filled&amp;nbsp;&lt;/font&gt;&lt;span style=&quot;color: rgba(0 , 0 , 0 , 0.87) ; font-family: &amp;#34;arial&amp;#34; , sans-serif ; text-align: left ; background-color: rgb(255 , 255 , 255) ; font-size: 10px&quot;&gt;&lt;br&gt;&lt;/span&gt;" style="shape=rhombus;html=1;dashed=0;whitespace=wrap;perimeter=rhombusPerimeter;fontSize=11;horizontal=1;verticalAlign=middle;spacing=0;" parent="A6Q7QGBYelO12TpGn7Jf-27" vertex="1">
          <mxGeometry x="330" y="124.5" width="90" height="75" as="geometry" />
        </mxCell>
        <mxCell id="G3WLuJugdALK-rbfUG9S-12" style="edgeStyle=orthogonalEdgeStyle;rounded=0;orthogonalLoop=1;jettySize=auto;html=1;exitX=0.5;exitY=0;exitDx=0;exitDy=0;entryX=0.5;entryY=1;entryDx=0;entryDy=0;fontSize=11;" parent="A6Q7QGBYelO12TpGn7Jf-27" source="G3WLuJugdALK-rbfUG9S-5" target="G3WLuJugdALK-rbfUG9S-0" edge="1">
          <mxGeometry relative="1" as="geometry" />
        </mxCell>
        <mxCell id="G3WLuJugdALK-rbfUG9S-15" style="edgeStyle=orthogonalEdgeStyle;rounded=0;orthogonalLoop=1;jettySize=auto;html=1;exitX=1;exitY=0.5;exitDx=0;exitDy=0;entryX=0;entryY=0.5;entryDx=0;entryDy=0;fontSize=11;" parent="A6Q7QGBYelO12TpGn7Jf-27" source="G3WLuJugdALK-rbfUG9S-5" target="A6Q7QGBYelO12TpGn7Jf-39" edge="1">
          <mxGeometry relative="1" as="geometry" />
        </mxCell>
        <mxCell id="G3WLuJugdALK-rbfUG9S-5" value="&lt;font style=&quot;font-size: 10px&quot;&gt;obligatory&amp;nbsp;&lt;br&gt;&lt;span style=&quot;color: rgba(0 , 0 , 0 , 0.87) ; font-family: &amp;#34;arial&amp;#34; , sans-serif ; font-size: 11px ; text-align: left ; background-color: rgb(255 , 255 , 255)&quot;&gt;measure&lt;/span&gt;&amp;nbsp;&lt;br&gt;&lt;/font&gt;&lt;span style=&quot;color: rgba(0 , 0 , 0 , 0.87) ; font-family: &amp;#34;arial&amp;#34; , sans-serif ; text-align: left ; background-color: rgb(255 , 255 , 255) ; font-size: 10px&quot;&gt;true&lt;br&gt;&lt;/span&gt;" style="shape=rhombus;html=1;dashed=0;whitespace=wrap;perimeter=rhombusPerimeter;fontSize=11;horizontal=1;verticalAlign=middle;spacing=0;" parent="A6Q7QGBYelO12TpGn7Jf-27" vertex="1">
          <mxGeometry x="443" y="124.5" width="90" height="75" as="geometry" />
        </mxCell>
        <mxCell id="G3WLuJugdALK-rbfUG9S-9" value="&lt;font style=&quot;font-size: 12px&quot;&gt;No&lt;/font&gt;" style="text;html=1;align=center;verticalAlign=middle;resizable=0;points=[];autosize=1;fontSize=20;" parent="A6Q7QGBYelO12TpGn7Jf-27" vertex="1">
          <mxGeometry x="370" y="100.5" width="30" height="30" as="geometry" />
        </mxCell>
        <mxCell id="G3WLuJugdALK-rbfUG9S-13" value="&lt;font style=&quot;font-size: 12px&quot;&gt;No&lt;/font&gt;" style="text;html=1;align=center;verticalAlign=middle;resizable=0;points=[];autosize=1;fontSize=20;" parent="A6Q7QGBYelO12TpGn7Jf-27" vertex="1">
          <mxGeometry x="490" y="100.5" width="30" height="30" as="geometry" />
        </mxCell>
        <mxCell id="G3WLuJugdALK-rbfUG9S-16" value="&lt;font style=&quot;font-size: 12px&quot;&gt;Yes&lt;/font&gt;" style="text;html=1;align=center;verticalAlign=middle;resizable=0;points=[];autosize=1;fontSize=20;" parent="A6Q7QGBYelO12TpGn7Jf-27" vertex="1">
          <mxGeometry x="530" y="135.75" width="40" height="30" as="geometry" />
        </mxCell>
        <mxCell id="G3WLuJugdALK-rbfUG9S-17" value="&lt;font style=&quot;font-size: 12px&quot;&gt;Yes&lt;/font&gt;" style="text;html=1;align=center;verticalAlign=middle;resizable=0;points=[];autosize=1;fontSize=20;" parent="A6Q7QGBYelO12TpGn7Jf-27" vertex="1">
          <mxGeometry x="530" y="230" width="40" height="30" as="geometry" />
        </mxCell>
        <mxCell id="G3WLuJugdALK-rbfUG9S-22" value="&lt;font style=&quot;font-size: 12px&quot;&gt;No&lt;/font&gt;" style="text;html=1;align=center;verticalAlign=middle;resizable=0;points=[];autosize=1;fontSize=20;" parent="A6Q7QGBYelO12TpGn7Jf-27" vertex="1">
          <mxGeometry x="490" y="290" width="30" height="30" as="geometry" />
        </mxCell>
        <mxCell id="G3WLuJugdALK-rbfUG9S-25" value="&lt;font style=&quot;font-size: 12px&quot;&gt;No&lt;/font&gt;" style="text;html=1;align=center;verticalAlign=middle;resizable=0;points=[];autosize=1;fontSize=20;" parent="A6Q7QGBYelO12TpGn7Jf-27" vertex="1">
          <mxGeometry x="600" y="90.75" width="30" height="30" as="geometry" />
        </mxCell>
        <mxCell id="G3WLuJugdALK-rbfUG9S-26" value="&lt;font style=&quot;font-size: 12px&quot;&gt;Yes&lt;/font&gt;" style="text;html=1;align=center;verticalAlign=middle;resizable=0;points=[];autosize=1;fontSize=20;" parent="A6Q7QGBYelO12TpGn7Jf-27" vertex="1">
          <mxGeometry x="690" y="100.5" width="40" height="30" as="geometry" />
        </mxCell>
        <mxCell id="A6Q7QGBYelO12TpGn7Jf-66" value="Simple Interaction &amp;nbsp;- Jade API Process - Error Message" style="fontStyle=0;verticalAlign=top;align=center;spacingTop=-2;fillColor=none;rounded=0;whiteSpace=wrap;html=1;strokeColor=#FF0000;strokeWidth=2;dashed=1;container=1;collapsible=0;expand=0;recursiveResize=0;fontSize=20;" parent="A6Q7QGBYelO12TpGn7Jf-1" vertex="1">
          <mxGeometry x="10" y="602.5" width="872" height="317.5" as="geometry" />
        </mxCell>
        <mxCell id="A6Q7QGBYelO12TpGn7Jf-67" value="" style="html=1;dashed=0;whitespace=wrap;shape=mxgraph.dfd.start" parent="A6Q7QGBYelO12TpGn7Jf-66" vertex="1">
          <mxGeometry x="72" y="77.5" width="80" height="30" as="geometry" />
        </mxCell>
        <mxCell id="A6Q7QGBYelO12TpGn7Jf-68" style="edgeStyle=orthogonalEdgeStyle;rounded=0;orthogonalLoop=1;jettySize=auto;html=1;exitX=0.5;exitY=0.5;exitDx=0;exitDy=15;exitPerimeter=0;entryX=0.5;entryY=0;entryDx=0;entryDy=0;" parent="A6Q7QGBYelO12TpGn7Jf-66" source="A6Q7QGBYelO12TpGn7Jf-67" target="A6Q7QGBYelO12TpGn7Jf-76" edge="1">
          <mxGeometry relative="1" as="geometry">
            <mxPoint x="112" y="141.25" as="targetPoint" />
          </mxGeometry>
        </mxCell>
        <mxCell id="A6Q7QGBYelO12TpGn7Jf-69" value="" style="html=1;dashed=0;whitespace=wrap;shape=mxgraph.dfd.start" parent="A6Q7QGBYelO12TpGn7Jf-66" vertex="1">
          <mxGeometry x="642" y="181.75" width="80" height="30" as="geometry" />
        </mxCell>
        <mxCell id="A6Q7QGBYelO12TpGn7Jf-70" style="edgeStyle=orthogonalEdgeStyle;rounded=0;orthogonalLoop=1;jettySize=auto;html=1;exitX=0.5;exitY=0;exitDx=0;exitDy=0;entryX=0;entryY=0.5;entryDx=0;entryDy=0;fontSize=11;" parent="A6Q7QGBYelO12TpGn7Jf-66" source="A6Q7QGBYelO12TpGn7Jf-72" target="A6Q7QGBYelO12TpGn7Jf-78" edge="1">
          <mxGeometry relative="1" as="geometry">
            <mxPoint x="354" y="89.25" as="targetPoint" />
          </mxGeometry>
        </mxCell>
        <mxCell id="A6Q7QGBYelO12TpGn7Jf-71" style="edgeStyle=orthogonalEdgeStyle;rounded=0;orthogonalLoop=1;jettySize=auto;html=1;exitX=0.5;exitY=1;exitDx=0;exitDy=0;fontSize=11;" parent="A6Q7QGBYelO12TpGn7Jf-66" source="A6Q7QGBYelO12TpGn7Jf-72" target="A6Q7QGBYelO12TpGn7Jf-80" edge="1">
          <mxGeometry relative="1" as="geometry" />
        </mxCell>
        <mxCell id="A6Q7QGBYelO12TpGn7Jf-72" value="&lt;br&gt;Attribute obligatory&amp;nbsp;&lt;br&gt;measure" style="shape=rhombus;html=1;dashed=0;whitespace=wrap;perimeter=rhombusPerimeter;fontSize=11;horizontal=1;verticalAlign=middle;spacing=0;" parent="A6Q7QGBYelO12TpGn7Jf-66" vertex="1">
          <mxGeometry x="212" y="140.5" width="111" height="92.5" as="geometry" />
        </mxCell>
        <mxCell id="A6Q7QGBYelO12TpGn7Jf-73" value="&lt;font style=&quot;font-size: 12px&quot;&gt;true&lt;/font&gt;" style="text;html=1;align=center;verticalAlign=middle;resizable=0;points=[];autosize=1;fontSize=20;" parent="A6Q7QGBYelO12TpGn7Jf-66" vertex="1">
          <mxGeometry x="262" y="114.25" width="40" height="30" as="geometry" />
        </mxCell>
        <mxCell id="A6Q7QGBYelO12TpGn7Jf-74" value="&lt;font style=&quot;font-size: 12px&quot;&gt;false&lt;/font&gt;" style="text;html=1;align=center;verticalAlign=middle;resizable=0;points=[];autosize=1;fontSize=20;" parent="A6Q7QGBYelO12TpGn7Jf-66" vertex="1">
          <mxGeometry x="262" y="233" width="40" height="30" as="geometry" />
        </mxCell>
        <mxCell id="A6Q7QGBYelO12TpGn7Jf-75" style="edgeStyle=orthogonalEdgeStyle;rounded=0;orthogonalLoop=1;jettySize=auto;html=1;exitX=1;exitY=0.5;exitDx=0;exitDy=0;entryX=0;entryY=0.5;entryDx=0;entryDy=0;fontSize=11;" parent="A6Q7QGBYelO12TpGn7Jf-66" source="A6Q7QGBYelO12TpGn7Jf-76" target="A6Q7QGBYelO12TpGn7Jf-72" edge="1">
          <mxGeometry relative="1" as="geometry" />
        </mxCell>
        <mxCell id="A6Q7QGBYelO12TpGn7Jf-76" value="Receives Product Entity" style="shape=document;whiteSpace=wrap;html=1;boundedLbl=1;dashed=0;flipH=1;fontSize=11;align=center;" parent="A6Q7QGBYelO12TpGn7Jf-66" vertex="1">
          <mxGeometry x="62" y="151.75" width="100" height="70" as="geometry" />
        </mxCell>
        <mxCell id="A6Q7QGBYelO12TpGn7Jf-77" style="edgeStyle=orthogonalEdgeStyle;rounded=0;orthogonalLoop=1;jettySize=auto;html=1;exitX=1;exitY=0.5;exitDx=0;exitDy=0;entryX=0.5;entryY=0;entryDx=0;entryDy=0;fontSize=11;" parent="A6Q7QGBYelO12TpGn7Jf-66" source="A6Q7QGBYelO12TpGn7Jf-78" target="A6Q7QGBYelO12TpGn7Jf-82" edge="1">
          <mxGeometry relative="1" as="geometry" />
        </mxCell>
        <mxCell id="A6Q7QGBYelO12TpGn7Jf-78" value="Set attribute &lt;br&gt;&lt;b&gt;flag &lt;/b&gt;to&lt;b&gt; 2&lt;/b&gt;" style="shape=parallelogram;perimeter=parallelogramPerimeter;whiteSpace=wrap;html=1;dashed=0;fontSize=11;align=center;" parent="A6Q7QGBYelO12TpGn7Jf-66" vertex="1">
          <mxGeometry x="362" y="94.25" width="100" height="50" as="geometry" />
        </mxCell>
        <mxCell id="A6Q7QGBYelO12TpGn7Jf-79" style="edgeStyle=orthogonalEdgeStyle;rounded=0;orthogonalLoop=1;jettySize=auto;html=1;exitX=1;exitY=0.75;exitDx=0;exitDy=0;entryX=0.5;entryY=1;entryDx=0;entryDy=0;fontSize=11;" parent="A6Q7QGBYelO12TpGn7Jf-66" source="A6Q7QGBYelO12TpGn7Jf-80" target="A6Q7QGBYelO12TpGn7Jf-82" edge="1">
          <mxGeometry relative="1" as="geometry" />
        </mxCell>
        <mxCell id="A6Q7QGBYelO12TpGn7Jf-80" value="Set attribute &lt;br&gt;&lt;b&gt;flag &lt;/b&gt;to&lt;b&gt;&amp;nbsp;6&lt;/b&gt;" style="shape=parallelogram;perimeter=parallelogramPerimeter;whiteSpace=wrap;html=1;dashed=0;fontSize=11;align=center;" parent="A6Q7QGBYelO12TpGn7Jf-66" vertex="1">
          <mxGeometry x="352" y="233" width="100" height="50" as="geometry" />
        </mxCell>
        <mxCell id="A6Q7QGBYelO12TpGn7Jf-81" style="edgeStyle=orthogonalEdgeStyle;rounded=0;orthogonalLoop=1;jettySize=auto;html=1;exitX=1;exitY=0.5;exitDx=0;exitDy=0;entryX=0;entryY=0.5;entryDx=0;entryDy=0;entryPerimeter=0;fontSize=11;" parent="A6Q7QGBYelO12TpGn7Jf-66" source="A6Q7QGBYelO12TpGn7Jf-82" target="A6Q7QGBYelO12TpGn7Jf-69" edge="1">
          <mxGeometry relative="1" as="geometry" />
        </mxCell>
        <mxCell id="A6Q7QGBYelO12TpGn7Jf-82" value="Entity Product&lt;br&gt;with new&lt;br&gt;&amp;nbsp;attribute&amp;nbsp;" style="shape=parallelogram;perimeter=parallelogramPerimeter;whiteSpace=wrap;html=1;dashed=0;fontSize=11;align=center;" parent="A6Q7QGBYelO12TpGn7Jf-66" vertex="1">
          <mxGeometry x="492" y="171.75" width="100" height="50" as="geometry" />
        </mxCell>
        <mxCell id="x1kP2G2OCzOiXEjzhqxT-0" value="Simple Visual Mix Jade Simple Commit Interaction" style="text;html=1;resizable=0;points=[];autosize=1;align=left;verticalAlign=top;spacingTop=-4;fontSize=16" parent="A6Q7QGBYelO12TpGn7Jf-1" vertex="1">
          <mxGeometry x="12" y="115.5" width="370" height="20" as="geometry" />
        </mxCell>
      </root>
    </mxGraphModel>
  </diagram>
  <diagram id="04d3i-9KU2tXRQpcHc8r" name="Data Communication">
    <mxGraphModel dx="2703" dy="1891" grid="1" gridSize="5" guides="1" tooltips="1" connect="1" arrows="1" fold="1" page="1" pageScale="1" pageWidth="1169" pageHeight="827" math="0" shadow="0">
      <root>
        <mxCell id="Ps8T6w26ynxrEsZP9qTw-0" />
        <mxCell id="Ps8T6w26ynxrEsZP9qTw-1" parent="Ps8T6w26ynxrEsZP9qTw-0" />
        <mxCell id="Vjo3kaJNEst4xchoB2S7-3" value="Visual Mix Jade Architecture" style="text;html=1;resizable=0;points=[];autosize=1;align=left;verticalAlign=top;spacingTop=-4;fontSize=30;fontStyle=1" parent="Ps8T6w26ynxrEsZP9qTw-1" vertex="1">
          <mxGeometry x="17" y="70.5" width="420" height="40" as="geometry" />
        </mxCell>
        <mxCell id="Vjo3kaJNEst4xchoB2S7-5" value="" style="line;strokeWidth=2;html=1;fontSize=14;" parent="Ps8T6w26ynxrEsZP9qTw-1" vertex="1">
          <mxGeometry x="13" y="145.5" width="1060" height="10" as="geometry" />
        </mxCell>
        <mxCell id="a-pRfIUOM88Ss_KxHDqI-0" value="Simple Visual Mix Jade Data Communication" style="text;html=1;resizable=0;points=[];autosize=1;align=left;verticalAlign=top;spacingTop=-4;fontSize=16" parent="Ps8T6w26ynxrEsZP9qTw-1" vertex="1">
          <mxGeometry x="12" y="115.5" width="330" height="25" as="geometry" />
        </mxCell>
        <mxCell id="Ps8T6w26ynxrEsZP9qTw-3" value="JadeMessage" style="swimlane;fontStyle=0;childLayout=stackLayout;horizontal=1;startSize=26;fillColor=none;horizontalStack=0;resizeParent=1;resizeParentMax=0;resizeLast=0;collapsible=1;marginBottom=0;fontSize=11;align=center;html=0;" parent="Ps8T6w26ynxrEsZP9qTw-1" vertex="1">
          <mxGeometry x="32" y="215" width="140" height="78" as="geometry" />
        </mxCell>
        <mxCell id="Ps8T6w26ynxrEsZP9qTw-5" value="+ command: ECommand" style="text;strokeColor=none;fillColor=none;align=left;verticalAlign=top;spacingLeft=4;spacingRight=4;overflow=hidden;rotatable=0;points=[[0,0.5],[1,0.5]];portConstraint=eastwest;fontSize=11;" parent="Ps8T6w26ynxrEsZP9qTw-3" vertex="1">
          <mxGeometry y="26" width="140" height="26" as="geometry" />
        </mxCell>
        <mxCell id="Ps8T6w26ynxrEsZP9qTw-7" value="+ barcode: String&#xa;" style="text;strokeColor=none;fillColor=none;align=left;verticalAlign=top;spacingLeft=4;spacingRight=4;overflow=hidden;rotatable=0;points=[[0,0.5],[1,0.5]];portConstraint=eastwest;" parent="Ps8T6w26ynxrEsZP9qTw-3" vertex="1">
          <mxGeometry y="52" width="140" height="26" as="geometry" />
        </mxCell>
        <mxCell id="Ps8T6w26ynxrEsZP9qTw-10" value="VmixRespMessage" style="swimlane;fontStyle=0;childLayout=stackLayout;horizontal=1;startSize=26;fillColor=none;horizontalStack=0;resizeParent=1;resizeParentMax=0;resizeLast=0;collapsible=1;marginBottom=0;fontSize=11;align=center;html=0;" parent="Ps8T6w26ynxrEsZP9qTw-1" vertex="1">
          <mxGeometry x="210" y="215" width="140" height="182" as="geometry" />
        </mxCell>
        <mxCell id="Ps8T6w26ynxrEsZP9qTw-17" value="+ barcode: String&#xa;" style="text;strokeColor=none;fillColor=none;align=left;verticalAlign=top;spacingLeft=4;spacingRight=4;overflow=hidden;rotatable=0;points=[[0,0.5],[1,0.5]];portConstraint=eastwest;" parent="Ps8T6w26ynxrEsZP9qTw-10" vertex="1">
          <mxGeometry y="26" width="140" height="26" as="geometry" />
        </mxCell>
        <mxCell id="Ps8T6w26ynxrEsZP9qTw-11" value="+ itemCode: String" style="text;strokeColor=none;fillColor=none;align=left;verticalAlign=top;spacingLeft=4;spacingRight=4;overflow=hidden;rotatable=0;points=[[0,0.5],[1,0.5]];portConstraint=eastwest;" parent="Ps8T6w26ynxrEsZP9qTw-10" vertex="1">
          <mxGeometry y="52" width="140" height="26" as="geometry" />
        </mxCell>
        <mxCell id="Ps8T6w26ynxrEsZP9qTw-12" value="+ itemName: String" style="text;strokeColor=none;fillColor=none;align=left;verticalAlign=top;spacingLeft=4;spacingRight=4;overflow=hidden;rotatable=0;points=[[0,0.5],[1,0.5]];portConstraint=eastwest;" parent="Ps8T6w26ynxrEsZP9qTw-10" vertex="1">
          <mxGeometry y="78" width="140" height="26" as="geometry" />
        </mxCell>
        <mxCell id="Ps8T6w26ynxrEsZP9qTw-13" value="+ flag: int&#xa;" style="text;strokeColor=none;fillColor=none;align=left;verticalAlign=top;spacingLeft=4;spacingRight=4;overflow=hidden;rotatable=0;points=[[0,0.5],[1,0.5]];portConstraint=eastwest;" parent="Ps8T6w26ynxrEsZP9qTw-10" vertex="1">
          <mxGeometry y="104" width="140" height="26" as="geometry" />
        </mxCell>
        <mxCell id="Ps8T6w26ynxrEsZP9qTw-15" value="+ itemPrice: double&#xa;" style="text;strokeColor=none;fillColor=none;align=left;verticalAlign=top;spacingLeft=4;spacingRight=4;overflow=hidden;rotatable=0;points=[[0,0.5],[1,0.5]];portConstraint=eastwest;" parent="Ps8T6w26ynxrEsZP9qTw-10" vertex="1">
          <mxGeometry y="130" width="140" height="26" as="geometry" />
        </mxCell>
        <mxCell id="Ps8T6w26ynxrEsZP9qTw-16" value="+ quantity: double&#xa;" style="text;strokeColor=none;fillColor=none;align=left;verticalAlign=top;spacingLeft=4;spacingRight=4;overflow=hidden;rotatable=0;points=[[0,0.5],[1,0.5]];portConstraint=eastwest;" parent="Ps8T6w26ynxrEsZP9qTw-10" vertex="1">
          <mxGeometry y="156" width="140" height="26" as="geometry" />
        </mxCell>
        <mxCell id="FK0prAdGzY6Ms7PpbqKq-3" value="" style="line;strokeWidth=2;html=1;fontSize=14;" parent="Ps8T6w26ynxrEsZP9qTw-1" vertex="1">
          <mxGeometry x="18" y="445" width="1060" height="10" as="geometry" />
        </mxCell>
        <mxCell id="FK0prAdGzY6Ms7PpbqKq-4" value="Example 1 - Barcode EAN13" style="text;html=1;resizable=0;points=[];autosize=1;align=left;verticalAlign=top;spacingTop=-4;fontSize=16" parent="Ps8T6w26ynxrEsZP9qTw-1" vertex="1">
          <mxGeometry x="17" y="420" width="220" height="25" as="geometry" />
        </mxCell>
        <mxCell id="FK0prAdGzY6Ms7PpbqKq-16" value="&lt;div&gt;Jade Middleware Message&lt;/div&gt;&lt;div&gt;&lt;br&gt;&lt;/div&gt;&lt;div&gt;{&lt;/div&gt;&lt;div&gt;&quot;command&quot;: &quot;query&quot;,&lt;br&gt;&lt;/div&gt;&lt;div&gt;&quot;barcode&quot;: &quot;2776890123416&quot;,&lt;br&gt;&lt;/div&gt;&lt;div&gt;&lt;br&gt;&lt;/div&gt;&lt;div&gt;}&lt;/div&gt;" style="shape=note;whiteSpace=wrap;html=1;size=14;verticalAlign=top;align=left;spacingTop=-6;fontSize=8;" parent="Ps8T6w26ynxrEsZP9qTw-1" vertex="1">
          <mxGeometry x="25" y="710" width="137.05" height="100" as="geometry" />
        </mxCell>
        <mxCell id="FK0prAdGzY6Ms7PpbqKq-20" value="" style="line;strokeWidth=2;html=1;fontSize=14;" parent="Ps8T6w26ynxrEsZP9qTw-1" vertex="1">
          <mxGeometry x="19" y="680" width="1060" height="10" as="geometry" />
        </mxCell>
        <mxCell id="FK0prAdGzY6Ms7PpbqKq-21" value="Example 2 - Barcode EAN13(Not Conformity)" style="text;html=1;resizable=0;points=[];autosize=1;align=left;verticalAlign=top;spacingTop=-4;fontSize=16" parent="Ps8T6w26ynxrEsZP9qTw-1" vertex="1">
          <mxGeometry x="18" y="655" width="335" height="25" as="geometry" />
        </mxCell>
        <mxCell id="FK0prAdGzY6Ms7PpbqKq-23" value="&lt;div&gt;Jade Middleware Message&lt;/div&gt;&lt;div&gt;&lt;br&gt;&lt;/div&gt;&lt;div&gt;{&lt;/div&gt;&lt;div&gt;&quot;command&quot;: &quot;query&quot;,&lt;br&gt;&lt;/div&gt;&lt;div&gt;&quot;barcode&quot;: &quot;2313600000038&quot;,&lt;br&gt;&lt;/div&gt;&lt;div&gt;}&lt;br&gt;&lt;/div&gt;" style="shape=note;whiteSpace=wrap;html=1;size=14;verticalAlign=top;align=left;spacingTop=-6;fontSize=8;" parent="Ps8T6w26ynxrEsZP9qTw-1" vertex="1">
          <mxGeometry x="32" y="905" width="137.05" height="100" as="geometry" />
        </mxCell>
        <mxCell id="FK0prAdGzY6Ms7PpbqKq-24" value="" style="line;strokeWidth=2;html=1;fontSize=14;" parent="Ps8T6w26ynxrEsZP9qTw-1" vertex="1">
          <mxGeometry x="28" y="875" width="1060" height="10" as="geometry" />
        </mxCell>
        <mxCell id="FK0prAdGzY6Ms7PpbqKq-25" value="Example 3 - Barcode EAN128 Product(Weight without Expire date)" style="text;html=1;resizable=0;points=[];autosize=1;align=left;verticalAlign=top;spacingTop=-4;fontSize=16" parent="Ps8T6w26ynxrEsZP9qTw-1" vertex="1">
          <mxGeometry x="19" y="2350" width="485" height="25" as="geometry" />
        </mxCell>
        <mxCell id="FK0prAdGzY6Ms7PpbqKq-31" value="" style="line;strokeWidth=2;html=1;fontSize=14;" parent="Ps8T6w26ynxrEsZP9qTw-1" vertex="1">
          <mxGeometry x="27" y="1065" width="1060" height="10" as="geometry" />
        </mxCell>
        <mxCell id="FK0prAdGzY6Ms7PpbqKq-33" value="" style="line;strokeWidth=2;html=1;fontSize=14;rotation=90;" parent="Ps8T6w26ynxrEsZP9qTw-1" vertex="1">
          <mxGeometry x="-569.38" y="1266.38" width="2232.75" height="10" as="geometry" />
        </mxCell>
        <mxCell id="FK0prAdGzY6Ms7PpbqKq-49" value="&lt;div&gt;{&lt;/div&gt;&lt;div&gt;&lt;span class=&quot;Apple-tab-span&quot;&gt; &lt;/span&gt;&quot;id&quot;: &quot;1&quot;,&lt;/div&gt;&lt;div&gt;&lt;span class=&quot;Apple-tab-span&quot;&gt; &lt;/span&gt;&quot;command&quot;: &quot;commit&quot;,&lt;/div&gt;&lt;div&gt;&lt;span class=&quot;Apple-tab-span&quot;&gt; &lt;/span&gt;&quot;terminal&quot;: &quot;1&quot;,&lt;/div&gt;&lt;div&gt;&lt;span class=&quot;Apple-tab-span&quot;&gt; &lt;/span&gt;&quot;barcode&quot;: &quot;2000400000111&quot;,&lt;/div&gt;&lt;div&gt;&lt;span class=&quot;Apple-tab-span&quot;&gt; &lt;/span&gt;&quot;quantity&quot;: 11,&lt;/div&gt;&lt;div&gt;&lt;span class=&quot;Apple-tab-span&quot;&gt; &lt;/span&gt;&quot;checked&quot;: true&lt;/div&gt;&lt;div&gt;}&lt;/div&gt;" style="shape=note;whiteSpace=wrap;html=1;size=14;verticalAlign=top;align=left;spacingTop=-6;fontSize=8;" parent="Ps8T6w26ynxrEsZP9qTw-1" vertex="1">
          <mxGeometry x="862" y="715" width="137.05" height="80" as="geometry" />
        </mxCell>
        <mxCell id="FK0prAdGzY6Ms7PpbqKq-50" value="" style="group" parent="Ps8T6w26ynxrEsZP9qTw-1" vertex="1" connectable="0">
          <mxGeometry x="924" y="485" width="137.05" height="100" as="geometry" />
        </mxCell>
        <mxCell id="FK0prAdGzY6Ms7PpbqKq-51" value="&lt;div&gt;Vmix Response Message&lt;/div&gt;&lt;div&gt;&lt;br&gt;&lt;/div&gt;&lt;div&gt;{&lt;/div&gt;&lt;div&gt;&amp;nbsp;&quot;barcode&quot;: &quot;7891000100103&quot;,&lt;/div&gt;&lt;div&gt;&amp;nbsp;&quot;itemCode&quot;: &quot;7891000100103&quot;,&lt;/div&gt;&lt;div&gt;&amp;nbsp;&quot;itemName&quot;: &quot;LEITE MOCA&quot;,&lt;/div&gt;&lt;div&gt;&amp;nbsp;&quot;flag&quot;: 0,&lt;/div&gt;&lt;div&gt;&amp;nbsp;&quot;itemPrice&quot;: 3.14,&lt;/div&gt;&lt;div&gt;&amp;nbsp;&quot;quantity&quot;: 5&lt;/div&gt;&lt;div&gt;}&lt;/div&gt;" style="shape=note;whiteSpace=wrap;html=1;size=14;verticalAlign=top;align=left;spacingTop=-6;fontSize=8;" parent="FK0prAdGzY6Ms7PpbqKq-50" vertex="1">
          <mxGeometry width="137.05" height="100" as="geometry" />
        </mxCell>
        <mxCell id="FK0prAdGzY6Ms7PpbqKq-52" value="" style="dashed=0;outlineConnect=0;html=1;align=center;labelPosition=center;verticalLabelPosition=bottom;verticalAlign=top;shape=mxgraph.weblogos.json_2;fontSize=11;" parent="FK0prAdGzY6Ms7PpbqKq-50" vertex="1">
          <mxGeometry x="107.97000000000003" y="6.25" width="15.95" height="6.25" as="geometry" />
        </mxCell>
        <mxCell id="FK0prAdGzY6Ms7PpbqKq-53" value="" style="group" parent="Ps8T6w26ynxrEsZP9qTw-1" vertex="1" connectable="0">
          <mxGeometry x="585" y="485" width="137.05" height="100" as="geometry" />
        </mxCell>
        <mxCell id="FK0prAdGzY6Ms7PpbqKq-54" value="&lt;div&gt;Jade Middleware Message&lt;/div&gt;&lt;div&gt;&lt;br&gt;&lt;/div&gt;&lt;div&gt;{&lt;/div&gt;&lt;div&gt;&lt;span class=&quot;Apple-tab-span&quot;&gt; &lt;/span&gt;&quot;id&quot;: &quot;1&quot;,&lt;/div&gt;&lt;div&gt;&lt;span class=&quot;Apple-tab-span&quot;&gt; &lt;/span&gt;&quot;command&quot;: &quot;commit&quot;,&lt;/div&gt;&lt;div&gt;&lt;span class=&quot;Apple-tab-span&quot;&gt; &lt;/span&gt;&quot;terminal&quot;: &quot;1&quot;,&lt;/div&gt;&lt;div&gt;&lt;span class=&quot;Apple-tab-span&quot;&gt; &lt;/span&gt;&quot;barcode&quot;: &quot;7891000100103&quot;,&lt;/div&gt;&lt;div&gt;&lt;span class=&quot;Apple-tab-span&quot;&gt; &lt;/span&gt;&quot;quantity&quot;: 11,&lt;/div&gt;&lt;div&gt;&lt;span class=&quot;Apple-tab-span&quot;&gt; &lt;/span&gt;&quot;checked&quot;: true&lt;/div&gt;&lt;div&gt;}&lt;/div&gt;" style="shape=note;whiteSpace=wrap;html=1;size=14;verticalAlign=top;align=left;spacingTop=-6;fontSize=8;" parent="FK0prAdGzY6Ms7PpbqKq-53" vertex="1">
          <mxGeometry width="137.05" height="100" as="geometry" />
        </mxCell>
        <mxCell id="FK0prAdGzY6Ms7PpbqKq-55" value="" style="dashed=0;outlineConnect=0;html=1;align=center;labelPosition=center;verticalLabelPosition=bottom;verticalAlign=top;shape=mxgraph.weblogos.json_2;fontSize=11;" parent="FK0prAdGzY6Ms7PpbqKq-53" vertex="1">
          <mxGeometry x="106" y="5" width="15.95" height="5" as="geometry" />
        </mxCell>
        <mxCell id="FK0prAdGzY6Ms7PpbqKq-56" value="&lt;div&gt;Jade Middleware Message&lt;/div&gt;&lt;div&gt;&lt;br&gt;&lt;/div&gt;&lt;div&gt;{&lt;/div&gt;&lt;div&gt;&lt;span class=&quot;Apple-tab-span&quot;&gt; &lt;/span&gt;&quot;id&quot;: &quot;1&quot;,&lt;/div&gt;&lt;div&gt;&lt;span class=&quot;Apple-tab-span&quot;&gt; &lt;/span&gt;&quot;command&quot;: &quot;commit&quot;,&lt;/div&gt;&lt;div&gt;&lt;span class=&quot;Apple-tab-span&quot;&gt; &lt;/span&gt;&quot;terminal&quot;: &quot;1&quot;,&lt;/div&gt;&lt;div&gt;&lt;span class=&quot;Apple-tab-span&quot;&gt; &lt;/span&gt;&quot;barcode&quot;: &quot;2000400000111&quot;,&lt;/div&gt;&lt;div&gt;&lt;span class=&quot;Apple-tab-span&quot;&gt; &lt;/span&gt;&quot;quantity&quot;: 11,&lt;/div&gt;&lt;div&gt;&lt;span class=&quot;Apple-tab-span&quot;&gt; &lt;/span&gt;&quot;checked&quot;: true&lt;/div&gt;&lt;div&gt;}&lt;/div&gt;" style="shape=note;whiteSpace=wrap;html=1;size=14;verticalAlign=top;align=left;spacingTop=-6;fontSize=8;" parent="Ps8T6w26ynxrEsZP9qTw-1" vertex="1">
          <mxGeometry x="607" y="710" width="137.05" height="100" as="geometry" />
        </mxCell>
        <mxCell id="FK0prAdGzY6Ms7PpbqKq-60" value="&lt;div&gt;{&lt;/div&gt;&lt;div&gt;&lt;span class=&quot;Apple-tab-span&quot;&gt; &lt;/span&gt;&quot;id&quot;: &quot;1&quot;,&lt;/div&gt;&lt;div&gt;&lt;span class=&quot;Apple-tab-span&quot;&gt; &lt;/span&gt;&quot;command&quot;: &quot;commit&quot;,&lt;/div&gt;&lt;div&gt;&lt;span class=&quot;Apple-tab-span&quot;&gt; &lt;/span&gt;&quot;terminal&quot;: &quot;1&quot;,&lt;/div&gt;&lt;div&gt;&lt;span class=&quot;Apple-tab-span&quot;&gt; &lt;/span&gt;&quot;barcode&quot;: &quot;2000400000111&quot;,&lt;/div&gt;&lt;div&gt;&lt;span class=&quot;Apple-tab-span&quot;&gt; &lt;/span&gt;&quot;quantity&quot;: 11,&lt;/div&gt;&lt;div&gt;&lt;span class=&quot;Apple-tab-span&quot;&gt; &lt;/span&gt;&quot;checked&quot;: true&lt;/div&gt;&lt;div&gt;}&lt;/div&gt;" style="shape=note;whiteSpace=wrap;html=1;size=14;verticalAlign=top;align=left;spacingTop=-6;fontSize=8;" parent="Ps8T6w26ynxrEsZP9qTw-1" vertex="1">
          <mxGeometry x="869" y="910" width="137.05" height="80" as="geometry" />
        </mxCell>
        <mxCell id="FK0prAdGzY6Ms7PpbqKq-61" value="&lt;div&gt;Jade Middleware Message&lt;/div&gt;&lt;div&gt;&lt;br&gt;&lt;/div&gt;&lt;div&gt;{&lt;/div&gt;&lt;div&gt;&lt;span class=&quot;Apple-tab-span&quot;&gt; &lt;/span&gt;&quot;id&quot;: &quot;1&quot;,&lt;/div&gt;&lt;div&gt;&lt;span class=&quot;Apple-tab-span&quot;&gt; &lt;/span&gt;&quot;command&quot;: &quot;commit&quot;,&lt;/div&gt;&lt;div&gt;&lt;span class=&quot;Apple-tab-span&quot;&gt; &lt;/span&gt;&quot;terminal&quot;: &quot;1&quot;,&lt;/div&gt;&lt;div&gt;&lt;span class=&quot;Apple-tab-span&quot;&gt; &lt;/span&gt;&quot;barcode&quot;: &quot;2000400000111&quot;,&lt;/div&gt;&lt;div&gt;&lt;span class=&quot;Apple-tab-span&quot;&gt; &lt;/span&gt;&quot;quantity&quot;: 11,&lt;/div&gt;&lt;div&gt;&lt;span class=&quot;Apple-tab-span&quot;&gt; &lt;/span&gt;&quot;checked&quot;: true&lt;/div&gt;&lt;div&gt;}&lt;/div&gt;" style="shape=note;whiteSpace=wrap;html=1;size=14;verticalAlign=top;align=left;spacingTop=-6;fontSize=8;" parent="Ps8T6w26ynxrEsZP9qTw-1" vertex="1">
          <mxGeometry x="614" y="905" width="137.05" height="100" as="geometry" />
        </mxCell>
        <mxCell id="FK0prAdGzY6Ms7PpbqKq-62" value="&lt;div&gt;{&lt;/div&gt;&lt;div&gt;&lt;span class=&quot;Apple-tab-span&quot;&gt; &lt;/span&gt;&quot;id&quot;: &quot;1&quot;,&lt;/div&gt;&lt;div&gt;&lt;span class=&quot;Apple-tab-span&quot;&gt; &lt;/span&gt;&quot;command&quot;: &quot;commit&quot;,&lt;/div&gt;&lt;div&gt;&lt;span class=&quot;Apple-tab-span&quot;&gt; &lt;/span&gt;&quot;terminal&quot;: &quot;1&quot;,&lt;/div&gt;&lt;div&gt;&lt;span class=&quot;Apple-tab-span&quot;&gt; &lt;/span&gt;&quot;barcode&quot;: &quot;2000400000111&quot;,&lt;/div&gt;&lt;div&gt;&lt;span class=&quot;Apple-tab-span&quot;&gt; &lt;/span&gt;&quot;quantity&quot;: 11,&lt;/div&gt;&lt;div&gt;&lt;span class=&quot;Apple-tab-span&quot;&gt; &lt;/span&gt;&quot;checked&quot;: true&lt;/div&gt;&lt;div&gt;}&lt;/div&gt;" style="shape=note;whiteSpace=wrap;html=1;size=14;verticalAlign=top;align=left;spacingTop=-6;fontSize=8;" parent="Ps8T6w26ynxrEsZP9qTw-1" vertex="1">
          <mxGeometry x="870" y="1095" width="137.05" height="80" as="geometry" />
        </mxCell>
        <mxCell id="FK0prAdGzY6Ms7PpbqKq-63" value="&lt;div&gt;Jade Middleware Message&lt;/div&gt;&lt;div&gt;&lt;br&gt;&lt;/div&gt;&lt;div&gt;{&lt;/div&gt;&lt;div&gt;&lt;span class=&quot;Apple-tab-span&quot;&gt; &lt;/span&gt;&quot;id&quot;: &quot;1&quot;,&lt;/div&gt;&lt;div&gt;&lt;span class=&quot;Apple-tab-span&quot;&gt; &lt;/span&gt;&quot;command&quot;: &quot;commit&quot;,&lt;/div&gt;&lt;div&gt;&lt;span class=&quot;Apple-tab-span&quot;&gt; &lt;/span&gt;&quot;terminal&quot;: &quot;1&quot;,&lt;/div&gt;&lt;div&gt;&lt;span class=&quot;Apple-tab-span&quot;&gt; &lt;/span&gt;&quot;barcode&quot;: &quot;2000400000111&quot;,&lt;/div&gt;&lt;div&gt;&lt;span class=&quot;Apple-tab-span&quot;&gt; &lt;/span&gt;&quot;quantity&quot;: 11,&lt;/div&gt;&lt;div&gt;&lt;span class=&quot;Apple-tab-span&quot;&gt; &lt;/span&gt;&quot;checked&quot;: true&lt;/div&gt;&lt;div&gt;}&lt;/div&gt;" style="shape=note;whiteSpace=wrap;html=1;size=14;verticalAlign=top;align=left;spacingTop=-6;fontSize=8;" parent="Ps8T6w26ynxrEsZP9qTw-1" vertex="1">
          <mxGeometry x="615" y="1090" width="137.05" height="100" as="geometry" />
        </mxCell>
        <mxCell id="FK0prAdGzY6Ms7PpbqKq-34" value="JadeMessage" style="swimlane;fontStyle=0;childLayout=stackLayout;horizontal=1;startSize=26;fillColor=none;horizontalStack=0;resizeParent=1;resizeParentMax=0;resizeLast=0;collapsible=1;marginBottom=0;fontSize=11;align=center;html=0;" parent="Ps8T6w26ynxrEsZP9qTw-1" vertex="1">
          <mxGeometry x="614" y="215" width="140" height="182" as="geometry" />
        </mxCell>
        <mxCell id="FK0prAdGzY6Ms7PpbqKq-35" value="+ id: String" style="text;strokeColor=none;fillColor=none;align=left;verticalAlign=top;spacingLeft=4;spacingRight=4;overflow=hidden;rotatable=0;points=[[0,0.5],[1,0.5]];portConstraint=eastwest;" parent="FK0prAdGzY6Ms7PpbqKq-34" vertex="1">
          <mxGeometry y="26" width="140" height="26" as="geometry" />
        </mxCell>
        <mxCell id="FK0prAdGzY6Ms7PpbqKq-36" value="+ command: ECommand" style="text;strokeColor=none;fillColor=none;align=left;verticalAlign=top;spacingLeft=4;spacingRight=4;overflow=hidden;rotatable=0;points=[[0,0.5],[1,0.5]];portConstraint=eastwest;" parent="FK0prAdGzY6Ms7PpbqKq-34" vertex="1">
          <mxGeometry y="52" width="140" height="26" as="geometry" />
        </mxCell>
        <mxCell id="FK0prAdGzY6Ms7PpbqKq-37" value="+ terminal: String&#xa;" style="text;strokeColor=none;fillColor=none;align=left;verticalAlign=top;spacingLeft=4;spacingRight=4;overflow=hidden;rotatable=0;points=[[0,0.5],[1,0.5]];portConstraint=eastwest;" parent="FK0prAdGzY6Ms7PpbqKq-34" vertex="1">
          <mxGeometry y="78" width="140" height="26" as="geometry" />
        </mxCell>
        <mxCell id="FK0prAdGzY6Ms7PpbqKq-38" value="+ barcode: String&#xa;" style="text;strokeColor=none;fillColor=none;align=left;verticalAlign=top;spacingLeft=4;spacingRight=4;overflow=hidden;rotatable=0;points=[[0,0.5],[1,0.5]];portConstraint=eastwest;" parent="FK0prAdGzY6Ms7PpbqKq-34" vertex="1">
          <mxGeometry y="104" width="140" height="26" as="geometry" />
        </mxCell>
        <mxCell id="FK0prAdGzY6Ms7PpbqKq-39" value="+ quantity: int&#xa;" style="text;strokeColor=none;fillColor=none;align=left;verticalAlign=top;spacingLeft=4;spacingRight=4;overflow=hidden;rotatable=0;points=[[0,0.5],[1,0.5]];portConstraint=eastwest;" parent="FK0prAdGzY6Ms7PpbqKq-34" vertex="1">
          <mxGeometry y="130" width="140" height="26" as="geometry" />
        </mxCell>
        <mxCell id="FK0prAdGzY6Ms7PpbqKq-40" value="+ checked: boolean&#xa;" style="text;strokeColor=none;fillColor=none;align=left;verticalAlign=top;spacingLeft=4;spacingRight=4;overflow=hidden;rotatable=0;points=[[0,0.5],[1,0.5]];portConstraint=eastwest;" parent="FK0prAdGzY6Ms7PpbqKq-34" vertex="1">
          <mxGeometry y="156" width="140" height="26" as="geometry" />
        </mxCell>
        <mxCell id="FK0prAdGzY6Ms7PpbqKq-41" value="VmixRespMessage" style="swimlane;fontStyle=0;childLayout=stackLayout;horizontal=1;startSize=26;fillColor=none;horizontalStack=0;resizeParent=1;resizeParentMax=0;resizeLast=0;collapsible=1;marginBottom=0;fontSize=11;align=center;html=0;" parent="Ps8T6w26ynxrEsZP9qTw-1" vertex="1">
          <mxGeometry x="792" y="215" width="140" height="182" as="geometry" />
        </mxCell>
        <mxCell id="FK0prAdGzY6Ms7PpbqKq-42" value="+ barcode: String&#xa;" style="text;strokeColor=none;fillColor=none;align=left;verticalAlign=top;spacingLeft=4;spacingRight=4;overflow=hidden;rotatable=0;points=[[0,0.5],[1,0.5]];portConstraint=eastwest;" parent="FK0prAdGzY6Ms7PpbqKq-41" vertex="1">
          <mxGeometry y="26" width="140" height="26" as="geometry" />
        </mxCell>
        <mxCell id="FK0prAdGzY6Ms7PpbqKq-43" value="+ itemCode: String" style="text;strokeColor=none;fillColor=none;align=left;verticalAlign=top;spacingLeft=4;spacingRight=4;overflow=hidden;rotatable=0;points=[[0,0.5],[1,0.5]];portConstraint=eastwest;" parent="FK0prAdGzY6Ms7PpbqKq-41" vertex="1">
          <mxGeometry y="52" width="140" height="26" as="geometry" />
        </mxCell>
        <mxCell id="FK0prAdGzY6Ms7PpbqKq-44" value="+ itemName: String" style="text;strokeColor=none;fillColor=none;align=left;verticalAlign=top;spacingLeft=4;spacingRight=4;overflow=hidden;rotatable=0;points=[[0,0.5],[1,0.5]];portConstraint=eastwest;" parent="FK0prAdGzY6Ms7PpbqKq-41" vertex="1">
          <mxGeometry y="78" width="140" height="26" as="geometry" />
        </mxCell>
        <mxCell id="FK0prAdGzY6Ms7PpbqKq-45" value="+ flag: int&#xa;" style="text;strokeColor=none;fillColor=none;align=left;verticalAlign=top;spacingLeft=4;spacingRight=4;overflow=hidden;rotatable=0;points=[[0,0.5],[1,0.5]];portConstraint=eastwest;" parent="FK0prAdGzY6Ms7PpbqKq-41" vertex="1">
          <mxGeometry y="104" width="140" height="26" as="geometry" />
        </mxCell>
        <mxCell id="FK0prAdGzY6Ms7PpbqKq-46" value="+ itemPrice: double&#xa;" style="text;strokeColor=none;fillColor=none;align=left;verticalAlign=top;spacingLeft=4;spacingRight=4;overflow=hidden;rotatable=0;points=[[0,0.5],[1,0.5]];portConstraint=eastwest;" parent="FK0prAdGzY6Ms7PpbqKq-41" vertex="1">
          <mxGeometry y="130" width="140" height="26" as="geometry" />
        </mxCell>
        <mxCell id="FK0prAdGzY6Ms7PpbqKq-47" value="+ quantity: double&#xa;" style="text;strokeColor=none;fillColor=none;align=left;verticalAlign=top;spacingLeft=4;spacingRight=4;overflow=hidden;rotatable=0;points=[[0,0.5],[1,0.5]];portConstraint=eastwest;" parent="FK0prAdGzY6Ms7PpbqKq-41" vertex="1">
          <mxGeometry y="156" width="140" height="26" as="geometry" />
        </mxCell>
        <mxCell id="FK0prAdGzY6Ms7PpbqKq-65" value="&lt;font style=&quot;font-size: 14px&quot;&gt;Query&lt;/font&gt;" style="text;html=1;strokeColor=none;fillColor=none;align=center;verticalAlign=middle;whiteSpace=wrap;rounded=0;fontSize=8;" parent="Ps8T6w26ynxrEsZP9qTw-1" vertex="1">
          <mxGeometry x="250" y="160" width="40" height="20" as="geometry" />
        </mxCell>
        <mxCell id="FK0prAdGzY6Ms7PpbqKq-66" value="&lt;font style=&quot;font-size: 14px&quot;&gt;Commit&lt;/font&gt;" style="text;html=1;strokeColor=none;fillColor=none;align=center;verticalAlign=middle;whiteSpace=wrap;rounded=0;fontSize=8;" parent="Ps8T6w26ynxrEsZP9qTw-1" vertex="1">
          <mxGeometry x="762" y="160" width="40" height="20" as="geometry" />
        </mxCell>
        <mxCell id="FK0prAdGzY6Ms7PpbqKq-68" value="" style="group" parent="Ps8T6w26ynxrEsZP9qTw-1" vertex="1" connectable="0">
          <mxGeometry x="18" y="490" width="137.05" height="100" as="geometry" />
        </mxCell>
        <mxCell id="FK0prAdGzY6Ms7PpbqKq-1" value="&lt;div&gt;Jade Middleware Message&lt;/div&gt;&lt;div&gt;&lt;br&gt;&lt;/div&gt;&lt;div&gt;{&lt;/div&gt;&lt;div&gt;&amp;nbsp;&quot;command&quot;: &quot;query&quot;,&lt;/div&gt;&lt;div&gt;&amp;nbsp;&quot;barcode&quot;: &quot;7891000100103&quot;&lt;/div&gt;&lt;div&gt;}&lt;/div&gt;" style="shape=note;whiteSpace=wrap;html=1;size=14;verticalAlign=top;align=left;spacingTop=-6;fontSize=8;" parent="FK0prAdGzY6Ms7PpbqKq-68" vertex="1">
          <mxGeometry width="137.05" height="100" as="geometry" />
        </mxCell>
        <mxCell id="Ps8T6w26ynxrEsZP9qTw-2" value="" style="dashed=0;outlineConnect=0;html=1;align=center;labelPosition=center;verticalLabelPosition=bottom;verticalAlign=top;shape=mxgraph.weblogos.json_2;fontSize=11;" parent="FK0prAdGzY6Ms7PpbqKq-68" vertex="1">
          <mxGeometry x="106" y="5" width="15.95" height="5" as="geometry" />
        </mxCell>
        <mxCell id="FK0prAdGzY6Ms7PpbqKq-69" value="" style="group" parent="Ps8T6w26ynxrEsZP9qTw-1" vertex="1" connectable="0">
          <mxGeometry x="342" y="485" width="137.05" height="100" as="geometry" />
        </mxCell>
        <mxCell id="FK0prAdGzY6Ms7PpbqKq-7" value="&lt;div&gt;Vmix Response Message&lt;/div&gt;&lt;div&gt;&lt;br&gt;&lt;/div&gt;&lt;div&gt;{&lt;/div&gt;&lt;div&gt;&amp;nbsp;&quot;barcode&quot;: &quot;7891000100103&quot;,&lt;/div&gt;&lt;div&gt;&amp;nbsp;&quot;itemCode&quot;: &quot;7891000100103&quot;,&lt;/div&gt;&lt;div&gt;&amp;nbsp;&quot;itemName&quot;: &quot;LEITE MOCA&quot;,&lt;/div&gt;&lt;div&gt;&amp;nbsp;&quot;flag&quot;: 1,&lt;/div&gt;&lt;div&gt;&amp;nbsp;&quot;itemPrice&quot;: 3.14,&lt;/div&gt;&lt;div&gt;&amp;nbsp;&quot;quantity&quot;: 1.0&lt;/div&gt;&lt;div&gt;}&lt;/div&gt;" style="shape=note;whiteSpace=wrap;html=1;size=14;verticalAlign=top;align=left;spacingTop=-6;fontSize=8;" parent="FK0prAdGzY6Ms7PpbqKq-69" vertex="1">
          <mxGeometry width="137.05" height="100" as="geometry" />
        </mxCell>
        <mxCell id="FK0prAdGzY6Ms7PpbqKq-67" value="" style="dashed=0;outlineConnect=0;html=1;align=center;labelPosition=center;verticalLabelPosition=bottom;verticalAlign=top;shape=mxgraph.weblogos.json_2;fontSize=11;" parent="FK0prAdGzY6Ms7PpbqKq-69" vertex="1">
          <mxGeometry x="106" y="3" width="15.95" height="5" as="geometry" />
        </mxCell>
        <mxCell id="uBCSQrn16Jsj0f7z9moJ-0" value="" style="group" parent="Ps8T6w26ynxrEsZP9qTw-1" vertex="1" connectable="0">
          <mxGeometry x="342" y="710" width="137.05" height="100" as="geometry" />
        </mxCell>
        <mxCell id="uBCSQrn16Jsj0f7z9moJ-1" value="&lt;div&gt;Vmix Response Message&lt;/div&gt;&lt;div&gt;&lt;br&gt;&lt;/div&gt;&lt;div&gt;{&lt;/div&gt;&lt;div&gt;&amp;nbsp;&quot;barcode&quot;: &quot;2776890123416&quot;,&lt;/div&gt;&lt;div&gt;&amp;nbsp;&quot;itemCode&quot;: &quot;2776890123416&quot;,&lt;/div&gt;&lt;div&gt;&amp;nbsp;&quot;itemName&quot;: &quot;PROD_1&quot;,&lt;/div&gt;&lt;div&gt;&amp;nbsp;&quot;flag&quot;: 1,&lt;/div&gt;&lt;div&gt;&amp;nbsp;&quot;itemPrice&quot;: 0.99,&lt;/div&gt;&lt;div&gt;&amp;nbsp;&quot;quantity&quot;: 1.0&lt;/div&gt;&lt;div&gt;}&lt;/div&gt;" style="shape=note;whiteSpace=wrap;html=1;size=14;verticalAlign=top;align=left;spacingTop=-6;fontSize=8;" parent="uBCSQrn16Jsj0f7z9moJ-0" vertex="1">
          <mxGeometry width="137.05" height="100" as="geometry" />
        </mxCell>
        <mxCell id="uBCSQrn16Jsj0f7z9moJ-2" value="" style="dashed=0;outlineConnect=0;html=1;align=center;labelPosition=center;verticalLabelPosition=bottom;verticalAlign=top;shape=mxgraph.weblogos.json_2;fontSize=11;" parent="uBCSQrn16Jsj0f7z9moJ-0" vertex="1">
          <mxGeometry x="106" y="3" width="15.95" height="5" as="geometry" />
        </mxCell>
        <mxCell id="uBCSQrn16Jsj0f7z9moJ-3" value="Example 3 - Barcode EAN13 - Qty - Obligatory measure false" style="text;html=1;resizable=0;points=[];autosize=1;align=left;verticalAlign=top;spacingTop=-4;fontSize=16" parent="Ps8T6w26ynxrEsZP9qTw-1" vertex="1">
          <mxGeometry x="26" y="850" width="450" height="25" as="geometry" />
        </mxCell>
        <mxCell id="uBCSQrn16Jsj0f7z9moJ-4" value="" style="group" parent="Ps8T6w26ynxrEsZP9qTw-1" vertex="1" connectable="0">
          <mxGeometry x="340" y="905" width="137.05" height="100" as="geometry" />
        </mxCell>
        <mxCell id="uBCSQrn16Jsj0f7z9moJ-5" value="&lt;div&gt;Vmix Response Message&lt;/div&gt;&lt;div&gt;&lt;br&gt;&lt;/div&gt;&lt;div&gt;{&lt;/div&gt;&lt;div&gt;&amp;nbsp;&quot;barcode&quot;: &quot;3136&quot;,&lt;/div&gt;&lt;div&gt;&amp;nbsp;&quot;itemCode&quot;: &quot;3136&quot;,&lt;/div&gt;&lt;div&gt;&amp;nbsp;&quot;itemName&quot;: &quot;PROD_2&quot;,&lt;/div&gt;&lt;div&gt;&amp;nbsp;&quot;flag&quot;: 1,&lt;/div&gt;&lt;div&gt;&amp;nbsp;&quot;itemPrice&quot;: 6,60, &lt;b&gt;*Unit Price 2.2*&lt;/b&gt;&lt;/div&gt;&lt;div&gt;&amp;nbsp;&quot;quantity&quot;: 3.0&lt;/div&gt;&lt;div&gt;}&lt;/div&gt;" style="shape=note;whiteSpace=wrap;html=1;size=14;verticalAlign=top;align=left;spacingTop=-6;fontSize=8;" parent="uBCSQrn16Jsj0f7z9moJ-4" vertex="1">
          <mxGeometry width="137.05" height="100" as="geometry" />
        </mxCell>
        <mxCell id="uBCSQrn16Jsj0f7z9moJ-6" value="" style="dashed=0;outlineConnect=0;html=1;align=center;labelPosition=center;verticalLabelPosition=bottom;verticalAlign=top;shape=mxgraph.weblogos.json_2;fontSize=11;" parent="uBCSQrn16Jsj0f7z9moJ-4" vertex="1">
          <mxGeometry x="106" y="3" width="15.95" height="5" as="geometry" />
        </mxCell>
        <mxCell id="pKHUcrHNFBbWnfL-h2MC-0" value="Example 4 - Barcode EAN128 Product(Weight with Expire date)" style="text;html=1;resizable=0;points=[];autosize=1;align=left;verticalAlign=top;spacingTop=-4;fontSize=16" parent="Ps8T6w26ynxrEsZP9qTw-1" vertex="1">
          <mxGeometry x="44" y="2390" width="465" height="25" as="geometry" />
        </mxCell>
        <mxCell id="pKHUcrHNFBbWnfL-h2MC-1" value="Example 4 - Barcode EAN13 - Qty - Obligatory measure true" style="text;html=1;resizable=0;points=[];autosize=1;align=left;verticalAlign=top;spacingTop=-4;fontSize=16" parent="Ps8T6w26ynxrEsZP9qTw-1" vertex="1">
          <mxGeometry x="27.5" y="1040" width="445" height="25" as="geometry" />
        </mxCell>
        <mxCell id="pKHUcrHNFBbWnfL-h2MC-2" value="&lt;div&gt;Jade Middleware Message&lt;/div&gt;&lt;div&gt;&lt;br&gt;&lt;/div&gt;&lt;div&gt;{&lt;/div&gt;&lt;div&gt;&quot;command&quot;: &quot;query&quot;,&lt;br&gt;&lt;/div&gt;&lt;div&gt;&quot;barcode&quot;: &quot;2313600000038&quot;,&lt;br&gt;&lt;/div&gt;&lt;div&gt;}&lt;br&gt;&lt;/div&gt;" style="shape=note;whiteSpace=wrap;html=1;size=14;verticalAlign=top;align=left;spacingTop=-6;fontSize=8;" parent="Ps8T6w26ynxrEsZP9qTw-1" vertex="1">
          <mxGeometry x="32" y="1095" width="137.05" height="100" as="geometry" />
        </mxCell>
        <mxCell id="pKHUcrHNFBbWnfL-h2MC-3" value="" style="group" parent="Ps8T6w26ynxrEsZP9qTw-1" vertex="1" connectable="0">
          <mxGeometry x="340" y="1095" width="137.05" height="100" as="geometry" />
        </mxCell>
        <mxCell id="pKHUcrHNFBbWnfL-h2MC-4" value="&lt;div&gt;Vmix Response Message&lt;/div&gt;&lt;div&gt;&lt;br&gt;&lt;/div&gt;&lt;div&gt;{&lt;/div&gt;&lt;div&gt;&amp;nbsp;&quot;barcode&quot;: &quot;3136&quot;,&lt;/div&gt;&lt;div&gt;&amp;nbsp;&quot;itemCode&quot;: &quot;3136&quot;,&lt;/div&gt;&lt;div&gt;&amp;nbsp;&quot;itemName&quot;: &quot;PROD_2&quot;,&lt;/div&gt;&lt;div&gt;&amp;nbsp;&quot;flag&quot;: 1,&lt;/div&gt;&lt;div&gt;&amp;nbsp;&quot;itemPrice&quot;: 0.19, &lt;b&gt;*Unit Price 2.2*&lt;/b&gt;&lt;/div&gt;&lt;div&gt;&amp;nbsp;&quot;quantity&quot;: 0.0066&lt;/div&gt;&lt;div&gt;}&lt;/div&gt;" style="shape=note;whiteSpace=wrap;html=1;size=14;verticalAlign=top;align=left;spacingTop=-6;fontSize=8;" parent="pKHUcrHNFBbWnfL-h2MC-3" vertex="1">
          <mxGeometry width="137.05" height="100" as="geometry" />
        </mxCell>
        <mxCell id="pKHUcrHNFBbWnfL-h2MC-5" value="" style="dashed=0;outlineConnect=0;html=1;align=center;labelPosition=center;verticalLabelPosition=bottom;verticalAlign=top;shape=mxgraph.weblogos.json_2;fontSize=11;" parent="pKHUcrHNFBbWnfL-h2MC-3" vertex="1">
          <mxGeometry x="106" y="3" width="15.95" height="5" as="geometry" />
        </mxCell>
        <mxCell id="pKHUcrHNFBbWnfL-h2MC-6" value="" style="line;strokeWidth=2;html=1;fontSize=14;" parent="Ps8T6w26ynxrEsZP9qTw-1" vertex="1">
          <mxGeometry x="27.5" y="1240" width="1060" height="10" as="geometry" />
        </mxCell>
        <mxCell id="pKHUcrHNFBbWnfL-h2MC-7" value="Example 5 - Barcode EAN13 - Price - Obligatory measure false" style="text;html=1;resizable=0;points=[];autosize=1;align=left;verticalAlign=top;spacingTop=-4;fontSize=16" parent="Ps8T6w26ynxrEsZP9qTw-1" vertex="1">
          <mxGeometry x="28" y="1215" width="460" height="25" as="geometry" />
        </mxCell>
        <mxCell id="pKHUcrHNFBbWnfL-h2MC-8" value="&lt;div&gt;Jade Middleware Message&lt;/div&gt;&lt;div&gt;&lt;br&gt;&lt;/div&gt;&lt;div&gt;{&lt;/div&gt;&lt;div&gt;&quot;command&quot;: &quot;query&quot;,&lt;br&gt;&lt;/div&gt;&lt;div&gt;&quot;barcode&quot;: &quot;2313600005008&quot;,&lt;br&gt;&lt;/div&gt;&lt;div&gt;}&lt;br&gt;&lt;/div&gt;" style="shape=note;whiteSpace=wrap;html=1;size=14;verticalAlign=top;align=left;spacingTop=-6;fontSize=8;" parent="Ps8T6w26ynxrEsZP9qTw-1" vertex="1">
          <mxGeometry x="32.5" y="1270" width="137.05" height="100" as="geometry" />
        </mxCell>
        <mxCell id="pKHUcrHNFBbWnfL-h2MC-9" value="" style="group" parent="Ps8T6w26ynxrEsZP9qTw-1" vertex="1" connectable="0">
          <mxGeometry x="340.5" y="1270" width="137.05" height="100" as="geometry" />
        </mxCell>
        <mxCell id="pKHUcrHNFBbWnfL-h2MC-10" value="&lt;div&gt;Vmix Response Message&lt;/div&gt;&lt;div&gt;&lt;br&gt;&lt;/div&gt;&lt;div&gt;{&lt;/div&gt;&lt;div&gt;&amp;nbsp;&quot;barcode&quot;: &quot;3136&quot;,&lt;/div&gt;&lt;div&gt;&amp;nbsp;&quot;itemCode&quot;: &quot;3136&quot;,&lt;/div&gt;&lt;div&gt;&amp;nbsp;&quot;itemName&quot;: &quot;PROD_2&quot;,&lt;/div&gt;&lt;div&gt;&amp;nbsp;&quot;flag&quot;: 1,&lt;/div&gt;&lt;div&gt;&amp;nbsp;&quot;itemPrice&quot;: 5.0, &lt;b&gt;*Unit Price 2.5*&lt;/b&gt;&lt;/div&gt;&lt;div&gt;&amp;nbsp;&quot;quantity&quot;: 2.0&lt;/div&gt;&lt;div&gt;}&lt;/div&gt;" style="shape=note;whiteSpace=wrap;html=1;size=14;verticalAlign=top;align=left;spacingTop=-6;fontSize=8;" parent="pKHUcrHNFBbWnfL-h2MC-9" vertex="1">
          <mxGeometry width="137.05" height="100" as="geometry" />
        </mxCell>
        <mxCell id="pKHUcrHNFBbWnfL-h2MC-11" value="" style="dashed=0;outlineConnect=0;html=1;align=center;labelPosition=center;verticalLabelPosition=bottom;verticalAlign=top;shape=mxgraph.weblogos.json_2;fontSize=11;" parent="pKHUcrHNFBbWnfL-h2MC-9" vertex="1">
          <mxGeometry x="106" y="3" width="15.95" height="5" as="geometry" />
        </mxCell>
        <mxCell id="pKHUcrHNFBbWnfL-h2MC-12" value="Example 6 - Barcode EAN13 - Price - Obligatory measure true" style="text;html=1;resizable=0;points=[];autosize=1;align=left;verticalAlign=top;spacingTop=-4;fontSize=16" parent="Ps8T6w26ynxrEsZP9qTw-1" vertex="1">
          <mxGeometry x="32" y="1395" width="455" height="25" as="geometry" />
        </mxCell>
        <mxCell id="pKHUcrHNFBbWnfL-h2MC-13" value="&lt;div&gt;Jade Middleware Message&lt;/div&gt;&lt;div&gt;&lt;br&gt;&lt;/div&gt;&lt;div&gt;{&lt;/div&gt;&lt;div&gt;&quot;command&quot;: &quot;query&quot;,&lt;br&gt;&lt;/div&gt;&lt;div&gt;&quot;barcode&quot;: &quot;2313600005008&quot;,&lt;br&gt;&lt;/div&gt;&lt;div&gt;}&lt;br&gt;&lt;/div&gt;" style="shape=note;whiteSpace=wrap;html=1;size=14;verticalAlign=top;align=left;spacingTop=-6;fontSize=8;" parent="Ps8T6w26ynxrEsZP9qTw-1" vertex="1">
          <mxGeometry x="36.5" y="1450" width="137.05" height="100" as="geometry" />
        </mxCell>
        <mxCell id="pKHUcrHNFBbWnfL-h2MC-14" value="" style="group" parent="Ps8T6w26ynxrEsZP9qTw-1" vertex="1" connectable="0">
          <mxGeometry x="344.5" y="1450" width="137.05" height="100" as="geometry" />
        </mxCell>
        <mxCell id="pKHUcrHNFBbWnfL-h2MC-15" value="&lt;div&gt;Vmix Response Message&lt;/div&gt;&lt;div&gt;&lt;br&gt;&lt;/div&gt;&lt;div&gt;{&lt;/div&gt;&lt;div&gt;&amp;nbsp;&quot;barcode&quot;: &quot;3136&quot;,&lt;/div&gt;&lt;div&gt;&amp;nbsp;&quot;itemCode&quot;: &quot;3136&quot;,&lt;/div&gt;&lt;div&gt;&amp;nbsp;&quot;itemName&quot;: &quot;PROD_2&quot;,&lt;/div&gt;&lt;div&gt;&amp;nbsp;&quot;flag&quot;: 1,&lt;/div&gt;&lt;div&gt;&amp;nbsp;&quot;itemPrice&quot;: 5.0, &lt;b&gt;*Unit Price 2.5*&lt;/b&gt;&lt;/div&gt;&lt;div&gt;&amp;nbsp;&quot;quantity&quot;: 2.0&lt;/div&gt;&lt;div&gt;}&lt;/div&gt;" style="shape=note;whiteSpace=wrap;html=1;size=14;verticalAlign=top;align=left;spacingTop=-6;fontSize=8;" parent="pKHUcrHNFBbWnfL-h2MC-14" vertex="1">
          <mxGeometry width="137.05" height="100" as="geometry" />
        </mxCell>
        <mxCell id="pKHUcrHNFBbWnfL-h2MC-16" value="" style="dashed=0;outlineConnect=0;html=1;align=center;labelPosition=center;verticalLabelPosition=bottom;verticalAlign=top;shape=mxgraph.weblogos.json_2;fontSize=11;" parent="pKHUcrHNFBbWnfL-h2MC-14" vertex="1">
          <mxGeometry x="106" y="3" width="15.95" height="5" as="geometry" />
        </mxCell>
        <mxCell id="pKHUcrHNFBbWnfL-h2MC-17" value="" style="line;strokeWidth=2;html=1;fontSize=14;" parent="Ps8T6w26ynxrEsZP9qTw-1" vertex="1">
          <mxGeometry x="32.5" y="1420" width="1060" height="10" as="geometry" />
        </mxCell>
        <mxCell id="pKHUcrHNFBbWnfL-h2MC-18" value="" style="line;strokeWidth=2;html=1;fontSize=14;" parent="Ps8T6w26ynxrEsZP9qTw-1" vertex="1">
          <mxGeometry x="32.5" y="1385" width="1060" height="10" as="geometry" />
        </mxCell>
        <mxCell id="pKHUcrHNFBbWnfL-h2MC-19" value="" style="line;strokeWidth=2;html=1;fontSize=14;" parent="Ps8T6w26ynxrEsZP9qTw-1" vertex="1">
          <mxGeometry x="28" y="1205" width="1060" height="10" as="geometry" />
        </mxCell>
        <mxCell id="pKHUcrHNFBbWnfL-h2MC-20" value="" style="line;strokeWidth=2;html=1;fontSize=14;" parent="Ps8T6w26ynxrEsZP9qTw-1" vertex="1">
          <mxGeometry x="28" y="1030" width="1060" height="10" as="geometry" />
        </mxCell>
        <mxCell id="pKHUcrHNFBbWnfL-h2MC-21" value="" style="line;strokeWidth=2;html=1;fontSize=14;" parent="Ps8T6w26ynxrEsZP9qTw-1" vertex="1">
          <mxGeometry x="25" y="840" width="1060" height="10" as="geometry" />
        </mxCell>
        <mxCell id="pKHUcrHNFBbWnfL-h2MC-22" value="" style="line;strokeWidth=2;html=1;fontSize=14;" parent="Ps8T6w26ynxrEsZP9qTw-1" vertex="1">
          <mxGeometry x="19" y="645" width="1060" height="10" as="geometry" />
        </mxCell>
        <mxCell id="pKHUcrHNFBbWnfL-h2MC-23" value="" style="line;strokeWidth=2;html=1;fontSize=14;" parent="Ps8T6w26ynxrEsZP9qTw-1" vertex="1">
          <mxGeometry x="19" y="410" width="1060" height="10" as="geometry" />
        </mxCell>
        <mxCell id="pKHUcrHNFBbWnfL-h2MC-52" value="&lt;div&gt;Jade Middleware Message&lt;/div&gt;&lt;div&gt;&lt;br&gt;&lt;/div&gt;&lt;div&gt;{&lt;/div&gt;&lt;div&gt;&quot;command&quot;: &quot;query&quot;,&lt;br&gt;&lt;/div&gt;&lt;div&gt;&quot;barcode&quot;: &quot;2313600000038&quot;,&lt;br&gt;&lt;/div&gt;&lt;div&gt;}&lt;br&gt;&lt;/div&gt;" style="shape=note;whiteSpace=wrap;html=1;size=14;verticalAlign=top;align=left;spacingTop=-6;fontSize=8;" parent="Ps8T6w26ynxrEsZP9qTw-1" vertex="1">
          <mxGeometry x="43.5" y="1635" width="137.05" height="100" as="geometry" />
        </mxCell>
        <mxCell id="pKHUcrHNFBbWnfL-h2MC-53" value="" style="line;strokeWidth=2;html=1;fontSize=14;" parent="Ps8T6w26ynxrEsZP9qTw-1" vertex="1">
          <mxGeometry x="39.5" y="1605" width="1060" height="10" as="geometry" />
        </mxCell>
        <mxCell id="pKHUcrHNFBbWnfL-h2MC-54" value="" style="line;strokeWidth=2;html=1;fontSize=14;" parent="Ps8T6w26ynxrEsZP9qTw-1" vertex="1">
          <mxGeometry x="38.5" y="1795" width="1060" height="10" as="geometry" />
        </mxCell>
        <mxCell id="pKHUcrHNFBbWnfL-h2MC-55" value="Example 7 - Barcode EAN128 - Qty - Obligatory measure false" style="text;html=1;resizable=0;points=[];autosize=1;align=left;verticalAlign=top;spacingTop=-4;fontSize=16" parent="Ps8T6w26ynxrEsZP9qTw-1" vertex="1">
          <mxGeometry x="37.5" y="1580" width="460" height="25" as="geometry" />
        </mxCell>
        <mxCell id="pKHUcrHNFBbWnfL-h2MC-56" value="" style="group" parent="Ps8T6w26ynxrEsZP9qTw-1" vertex="1" connectable="0">
          <mxGeometry x="351.5" y="1635" width="137.05" height="100" as="geometry" />
        </mxCell>
        <mxCell id="pKHUcrHNFBbWnfL-h2MC-57" value="&lt;div&gt;Vmix Response Message&lt;/div&gt;&lt;div&gt;&lt;br&gt;&lt;/div&gt;&lt;div&gt;{&lt;/div&gt;&lt;div&gt;&amp;nbsp;&quot;barcode&quot;: &quot;3136&quot;,&lt;/div&gt;&lt;div&gt;&amp;nbsp;&quot;itemCode&quot;: &quot;3136&quot;,&lt;/div&gt;&lt;div&gt;&amp;nbsp;&quot;itemName&quot;: &quot;PROD_2&quot;,&lt;/div&gt;&lt;div&gt;&amp;nbsp;&quot;flag&quot;: 1,&lt;/div&gt;&lt;div&gt;&amp;nbsp;&quot;itemPrice&quot;: 6,60, &lt;b&gt;*Unit Price 2.2*&lt;/b&gt;&lt;/div&gt;&lt;div&gt;&amp;nbsp;&quot;quantity&quot;: 3.0&lt;/div&gt;&lt;div&gt;}&lt;/div&gt;" style="shape=note;whiteSpace=wrap;html=1;size=14;verticalAlign=top;align=left;spacingTop=-6;fontSize=8;" parent="pKHUcrHNFBbWnfL-h2MC-56" vertex="1">
          <mxGeometry width="137.05" height="100" as="geometry" />
        </mxCell>
        <mxCell id="pKHUcrHNFBbWnfL-h2MC-58" value="" style="dashed=0;outlineConnect=0;html=1;align=center;labelPosition=center;verticalLabelPosition=bottom;verticalAlign=top;shape=mxgraph.weblogos.json_2;fontSize=11;" parent="pKHUcrHNFBbWnfL-h2MC-56" vertex="1">
          <mxGeometry x="106" y="3" width="15.95" height="5" as="geometry" />
        </mxCell>
        <mxCell id="pKHUcrHNFBbWnfL-h2MC-59" value="Example 4 - Barcode EAN128 - Qty - Obligatory measure true" style="text;html=1;resizable=0;points=[];autosize=1;align=left;verticalAlign=top;spacingTop=-4;fontSize=16" parent="Ps8T6w26ynxrEsZP9qTw-1" vertex="1">
          <mxGeometry x="39" y="1770" width="450" height="25" as="geometry" />
        </mxCell>
        <mxCell id="pKHUcrHNFBbWnfL-h2MC-60" value="&lt;div&gt;Jade Middleware Message&lt;/div&gt;&lt;div&gt;&lt;br&gt;&lt;/div&gt;&lt;div&gt;{&lt;/div&gt;&lt;div&gt;&quot;command&quot;: &quot;query&quot;,&lt;br&gt;&lt;/div&gt;&lt;div&gt;&quot;barcode&quot;: &quot;2313600000038&quot;,&lt;br&gt;&lt;/div&gt;&lt;div&gt;}&lt;br&gt;&lt;/div&gt;" style="shape=note;whiteSpace=wrap;html=1;size=14;verticalAlign=top;align=left;spacingTop=-6;fontSize=8;" parent="Ps8T6w26ynxrEsZP9qTw-1" vertex="1">
          <mxGeometry x="43.5" y="1825" width="137.05" height="100" as="geometry" />
        </mxCell>
        <mxCell id="pKHUcrHNFBbWnfL-h2MC-61" value="" style="group" parent="Ps8T6w26ynxrEsZP9qTw-1" vertex="1" connectable="0">
          <mxGeometry x="351.5" y="1825" width="137.05" height="100" as="geometry" />
        </mxCell>
        <mxCell id="pKHUcrHNFBbWnfL-h2MC-62" value="&lt;div&gt;Vmix Response Message&lt;/div&gt;&lt;div&gt;&lt;br&gt;&lt;/div&gt;&lt;div&gt;{&lt;/div&gt;&lt;div&gt;&amp;nbsp;&quot;barcode&quot;: &quot;3136&quot;,&lt;/div&gt;&lt;div&gt;&amp;nbsp;&quot;itemCode&quot;: &quot;3136&quot;,&lt;/div&gt;&lt;div&gt;&amp;nbsp;&quot;itemName&quot;: &quot;PROD_2&quot;,&lt;/div&gt;&lt;div&gt;&amp;nbsp;&quot;flag&quot;: 1,&lt;/div&gt;&lt;div&gt;&amp;nbsp;&quot;itemPrice&quot;: 0.19, &lt;b&gt;*Unit Price 2.2*&lt;/b&gt;&lt;/div&gt;&lt;div&gt;&amp;nbsp;&quot;quantity&quot;: 0.0066&lt;/div&gt;&lt;div&gt;}&lt;/div&gt;" style="shape=note;whiteSpace=wrap;html=1;size=14;verticalAlign=top;align=left;spacingTop=-6;fontSize=8;" parent="pKHUcrHNFBbWnfL-h2MC-61" vertex="1">
          <mxGeometry width="137.05" height="100" as="geometry" />
        </mxCell>
        <mxCell id="pKHUcrHNFBbWnfL-h2MC-63" value="" style="dashed=0;outlineConnect=0;html=1;align=center;labelPosition=center;verticalLabelPosition=bottom;verticalAlign=top;shape=mxgraph.weblogos.json_2;fontSize=11;" parent="pKHUcrHNFBbWnfL-h2MC-61" vertex="1">
          <mxGeometry x="106" y="3" width="15.95" height="5" as="geometry" />
        </mxCell>
        <mxCell id="pKHUcrHNFBbWnfL-h2MC-64" value="" style="line;strokeWidth=2;html=1;fontSize=14;" parent="Ps8T6w26ynxrEsZP9qTw-1" vertex="1">
          <mxGeometry x="39" y="1970" width="1060" height="10" as="geometry" />
        </mxCell>
        <mxCell id="pKHUcrHNFBbWnfL-h2MC-65" value="Example 5 - Barcode EA128 - Price - Obligatory measure false" style="text;html=1;resizable=0;points=[];autosize=1;align=left;verticalAlign=top;spacingTop=-4;fontSize=16" parent="Ps8T6w26ynxrEsZP9qTw-1" vertex="1">
          <mxGeometry x="39.5" y="1945" width="460" height="25" as="geometry" />
        </mxCell>
        <mxCell id="pKHUcrHNFBbWnfL-h2MC-66" value="&lt;div&gt;Jade Middleware Message&lt;/div&gt;&lt;div&gt;&lt;br&gt;&lt;/div&gt;&lt;div&gt;{&lt;/div&gt;&lt;div&gt;&quot;command&quot;: &quot;query&quot;,&lt;br&gt;&lt;/div&gt;&lt;div&gt;&quot;barcode&quot;: &quot;2313600005008&quot;,&lt;br&gt;&lt;/div&gt;&lt;div&gt;}&lt;br&gt;&lt;/div&gt;" style="shape=note;whiteSpace=wrap;html=1;size=14;verticalAlign=top;align=left;spacingTop=-6;fontSize=8;" parent="Ps8T6w26ynxrEsZP9qTw-1" vertex="1">
          <mxGeometry x="44" y="2000" width="137.05" height="100" as="geometry" />
        </mxCell>
        <mxCell id="pKHUcrHNFBbWnfL-h2MC-67" value="" style="group" parent="Ps8T6w26ynxrEsZP9qTw-1" vertex="1" connectable="0">
          <mxGeometry x="352" y="2000" width="137.05" height="100" as="geometry" />
        </mxCell>
        <mxCell id="pKHUcrHNFBbWnfL-h2MC-68" value="&lt;div&gt;Vmix Response Message&lt;/div&gt;&lt;div&gt;&lt;br&gt;&lt;/div&gt;&lt;div&gt;{&lt;/div&gt;&lt;div&gt;&amp;nbsp;&quot;barcode&quot;: &quot;3136&quot;,&lt;/div&gt;&lt;div&gt;&amp;nbsp;&quot;itemCode&quot;: &quot;3136&quot;,&lt;/div&gt;&lt;div&gt;&amp;nbsp;&quot;itemName&quot;: &quot;PROD_2&quot;,&lt;/div&gt;&lt;div&gt;&amp;nbsp;&quot;flag&quot;: 1,&lt;/div&gt;&lt;div&gt;&amp;nbsp;&quot;itemPrice&quot;: 5.0, &lt;b&gt;*Unit Price 2.5*&lt;/b&gt;&lt;/div&gt;&lt;div&gt;&amp;nbsp;&quot;quantity&quot;: 2.0&lt;/div&gt;&lt;div&gt;}&lt;/div&gt;" style="shape=note;whiteSpace=wrap;html=1;size=14;verticalAlign=top;align=left;spacingTop=-6;fontSize=8;" parent="pKHUcrHNFBbWnfL-h2MC-67" vertex="1">
          <mxGeometry width="137.05" height="100" as="geometry" />
        </mxCell>
        <mxCell id="pKHUcrHNFBbWnfL-h2MC-69" value="" style="dashed=0;outlineConnect=0;html=1;align=center;labelPosition=center;verticalLabelPosition=bottom;verticalAlign=top;shape=mxgraph.weblogos.json_2;fontSize=11;" parent="pKHUcrHNFBbWnfL-h2MC-67" vertex="1">
          <mxGeometry x="106" y="3" width="15.95" height="5" as="geometry" />
        </mxCell>
        <mxCell id="pKHUcrHNFBbWnfL-h2MC-70" value="Example 6 - Barcode EAN128 - Price - Obligatory measure true" style="text;html=1;resizable=0;points=[];autosize=1;align=left;verticalAlign=top;spacingTop=-4;fontSize=16" parent="Ps8T6w26ynxrEsZP9qTw-1" vertex="1">
          <mxGeometry x="43.5" y="2125" width="465" height="25" as="geometry" />
        </mxCell>
        <mxCell id="pKHUcrHNFBbWnfL-h2MC-71" value="&lt;div&gt;Jade Middleware Message&lt;/div&gt;&lt;div&gt;&lt;br&gt;&lt;/div&gt;&lt;div&gt;{&lt;/div&gt;&lt;div&gt;&quot;command&quot;: &quot;query&quot;,&lt;br&gt;&lt;/div&gt;&lt;div&gt;&quot;barcode&quot;: &quot;2313600005008&quot;,&lt;br&gt;&lt;/div&gt;&lt;div&gt;}&lt;br&gt;&lt;/div&gt;" style="shape=note;whiteSpace=wrap;html=1;size=14;verticalAlign=top;align=left;spacingTop=-6;fontSize=8;" parent="Ps8T6w26ynxrEsZP9qTw-1" vertex="1">
          <mxGeometry x="48" y="2180" width="137.05" height="100" as="geometry" />
        </mxCell>
        <mxCell id="pKHUcrHNFBbWnfL-h2MC-72" value="" style="group" parent="Ps8T6w26ynxrEsZP9qTw-1" vertex="1" connectable="0">
          <mxGeometry x="356" y="2180" width="137.05" height="100" as="geometry" />
        </mxCell>
        <mxCell id="pKHUcrHNFBbWnfL-h2MC-73" value="&lt;div&gt;Vmix Response Message&lt;/div&gt;&lt;div&gt;&lt;br&gt;&lt;/div&gt;&lt;div&gt;{&lt;/div&gt;&lt;div&gt;&amp;nbsp;&quot;barcode&quot;: &quot;3136&quot;,&lt;/div&gt;&lt;div&gt;&amp;nbsp;&quot;itemCode&quot;: &quot;3136&quot;,&lt;/div&gt;&lt;div&gt;&amp;nbsp;&quot;itemName&quot;: &quot;PROD_2&quot;,&lt;/div&gt;&lt;div&gt;&amp;nbsp;&quot;flag&quot;: 1,&lt;/div&gt;&lt;div&gt;&amp;nbsp;&quot;itemPrice&quot;: 5.0, &lt;b&gt;*Unit Price 2.5*&lt;/b&gt;&lt;/div&gt;&lt;div&gt;&amp;nbsp;&quot;quantity&quot;: 2.0&lt;/div&gt;&lt;div&gt;}&lt;/div&gt;" style="shape=note;whiteSpace=wrap;html=1;size=14;verticalAlign=top;align=left;spacingTop=-6;fontSize=8;" parent="pKHUcrHNFBbWnfL-h2MC-72" vertex="1">
          <mxGeometry width="137.05" height="100" as="geometry" />
        </mxCell>
        <mxCell id="pKHUcrHNFBbWnfL-h2MC-74" value="" style="dashed=0;outlineConnect=0;html=1;align=center;labelPosition=center;verticalLabelPosition=bottom;verticalAlign=top;shape=mxgraph.weblogos.json_2;fontSize=11;" parent="pKHUcrHNFBbWnfL-h2MC-72" vertex="1">
          <mxGeometry x="106" y="3" width="15.95" height="5" as="geometry" />
        </mxCell>
        <mxCell id="pKHUcrHNFBbWnfL-h2MC-75" value="" style="line;strokeWidth=2;html=1;fontSize=14;" parent="Ps8T6w26ynxrEsZP9qTw-1" vertex="1">
          <mxGeometry x="44" y="2150" width="1060" height="10" as="geometry" />
        </mxCell>
        <mxCell id="pKHUcrHNFBbWnfL-h2MC-76" value="" style="line;strokeWidth=2;html=1;fontSize=14;" parent="Ps8T6w26ynxrEsZP9qTw-1" vertex="1">
          <mxGeometry x="44" y="2115" width="1060" height="10" as="geometry" />
        </mxCell>
        <mxCell id="pKHUcrHNFBbWnfL-h2MC-77" value="" style="line;strokeWidth=2;html=1;fontSize=14;" parent="Ps8T6w26ynxrEsZP9qTw-1" vertex="1">
          <mxGeometry x="39.5" y="1935" width="1060" height="10" as="geometry" />
        </mxCell>
        <mxCell id="pKHUcrHNFBbWnfL-h2MC-78" value="" style="line;strokeWidth=2;html=1;fontSize=14;" parent="Ps8T6w26ynxrEsZP9qTw-1" vertex="1">
          <mxGeometry x="39.5" y="1760" width="1060" height="10" as="geometry" />
        </mxCell>
        <mxCell id="pKHUcrHNFBbWnfL-h2MC-79" value="" style="line;strokeWidth=2;html=1;fontSize=14;" parent="Ps8T6w26ynxrEsZP9qTw-1" vertex="1">
          <mxGeometry x="36.5" y="1570" width="1060" height="10" as="geometry" />
        </mxCell>
      </root>
    </mxGraphModel>
  </diagram>
</mxfile>
